<svg version="1.1" xmlns="http://www.w3.org/2000/svg" xmlns:xlink="http://www.w3.org/1999/xlink" width="241.44211" height="254.14932" viewBox="0,0,241.44211,254.14932"><g transform="translate(-199.27894,-52.92534)"><g data-paper-data="{&quot;isPaintingLayer&quot;:true}" fill="#ffffff" fill-rule="evenodd" stroke="none" stroke-width="1" stroke-linecap="butt" stroke-linejoin="miter" stroke-miterlimit="10" stroke-dasharray="" stroke-dashoffset="0" style="mix-blend-mode: normal"><path d="M356.46265,68.61436c1.18687,2.84266 1.6507,6.14851 1.83242,10.97048c0.26813,7.08721 3.93042,13.64744 10.11895,17.19346c6.18854,3.54614 13.74439,3.41361 20.06255,0.09963c4.29766,-2.25481 7.41481,-3.50866 10.48874,-3.91022c6.73368,-0.87986 13.54362,0.93107 18.93158,5.03444c4.04224,3.07749 7.02469,8.20522 12.99084,18.46052c5.96616,10.2553 8.9486,15.38302 9.61447,20.3951c0.88571,6.68285 -0.93908,13.44145 -5.07282,18.78837c-1.88833,2.44237 -4.54038,4.49336 -8.65887,7.06154c-6.05003,3.77284 -9.94359,10.19901 -9.94359,17.29105c0,7.09204 3.89356,13.52075 9.94359,17.29359c4.11722,2.56691 6.76927,4.61917 8.6576,7.06027c4.13374,5.3473 5.95853,12.1064 5.07282,18.78925c-0.66587,5.01182 -3.64832,10.13929 -9.61447,20.39422c-5.96616,10.25619 -8.9486,15.38366 -12.99084,18.4614c-5.38797,4.10324 -12.1979,5.91406 -18.93158,5.03343c-3.07394,-0.40155 -6.18981,-1.65452 -10.48874,-3.90882c-6.31815,-3.3141 -13.87401,-3.44753 -20.06254,0.09912c-6.18854,3.54665 -9.84956,10.10625 -10.11642,17.1932c-0.18171,4.82249 -0.64681,8.12897 -1.83369,10.97163c-2.59868,6.22666 -7.58382,11.17494 -13.85877,13.75456c-4.70558,1.93408 -10.67173,1.93408 -22.60404,1.93408c-11.93231,0 -17.89846,0 -22.60404,-1.93408c-6.27495,-2.57961 -11.26021,-7.5279 -13.85927,-13.75456c-1.18649,-2.84266 -1.65083,-6.14914 -1.83255,-10.97036c-0.26711,-7.08823 -3.92928,-13.64782 -10.11807,-17.19447c-6.18879,-3.54539 -13.74439,-3.41323 -20.06242,-0.09912c-4.29868,2.2543 -7.41545,3.50854 -10.48926,3.91009c-6.73369,0.87935 -13.54374,-0.93146 -18.93196,-5.0347c-4.04123,-3.07648 -7.02431,-8.20521 -12.99034,-18.46013c-5.9659,-10.25493 -8.94898,-15.38366 -9.61383,-20.39549c-0.88647,-6.68285 0.93819,-13.44069 5.07282,-18.78798c1.88732,-2.4411 4.54,-4.49336 8.65696,-7.06154c6.05078,-3.77284 9.94436,-10.20028 9.94474,-17.29232c0.00038,-7.09204 -3.89332,-13.52075 -9.94474,-17.29486c-4.11633,-2.56691 -6.76851,-4.6179 -8.65569,-7.059c-4.13463,-5.34781 -5.95942,-12.1064 -5.07282,-18.78913c0.66485,-5.0122 3.64781,-10.13979 9.61383,-20.39523c5.96603,-10.2553 8.9491,-15.38302 12.99033,-18.46051c5.38822,-4.10337 12.19828,-5.91431 18.93197,-5.03445c3.07394,0.40156 6.19094,1.65553 10.49001,3.9106c6.31752,3.31386 13.87262,3.44626 20.06103,-0.0995c6.18841,-3.54589 9.85044,-10.10561 10.11743,-17.19244c0.18171,-4.82236 0.64605,-8.12833 1.83255,-10.97111c2.59906,-6.22729 7.58432,-11.17495 13.85927,-13.75444c4.70558,-1.93458 10.67173,-1.93458 22.60404,-1.93458c11.93231,0 17.89846,0 22.60404,1.93458c6.27495,2.57949 11.26009,7.52714 13.85877,13.75444zM281.58721,180c0,-21.055 17.19752,-38.1224 38.41263,-38.1224c21.21512,0 38.41213,17.0674 38.41213,38.1224c0,21.055 -17.19701,38.1224 -38.41213,38.1224c-21.21512,0 -38.41263,-17.0674 -38.41263,-38.1224z"/></g></g></svg>