<svg version="1.1" xmlns="http://www.w3.org/2000/svg" xmlns:xlink="http://www.w3.org/1999/xlink" width="329.35237" height="329.37297" viewBox="0,0,329.35237,329.37297"><g transform="translate(-138.6126,1.4076)"><g data-paper-data="{&quot;isPaintingLayer&quot;:true}" stroke-linecap="butt" stroke-linejoin="miter" stroke-miterlimit="10" stroke-dasharray="" stroke-dashoffset="0" style="mix-blend-mode: normal"><path d="M257.19985,1.0924c25.12662,3.70137 47.9771,16.61773 64.10703,36.23609c16.12993,19.61822 24.38485,44.53543 23.15735,69.9036c-0.45592,9.4532 -2.21826,18.71717 -5.17741,27.55005l113.33764,113.33763c17.12069,17.12069 17.12069,44.87679 0,61.99748l-2.50761,2.50761c-17.12069,17.12069 -44.87678,17.12069 -61.99748,0l-113.33763,-113.33764c-8.79065,2.94454 -18.008,4.7025 -27.41474,5.17011c-25.36642,1.25965 -50.29444,-6.96168 -69.93399,-23.0653c-19.63955,-16.10362 -32.58602,-38.93803 -36.3204,-64.05938c-3.01395,-20.27507 0.1465,-40.86988 8.89369,-59.16473c4.7529,-9.9404 17.13998,-7.84796 23.71587,-1.27222l62.73237,62.73252l23.17329,-23.17329l-62.73252,-62.73237c-6.5753,-6.57545 -8.90887,-18.83204 1.1518,-23.65859c18.28316,-8.77127 38.87388,-11.95883 59.15275,-8.97157zM431.95863,268.7856c5.70641,5.70641 5.70641,14.95941 0,20.66582l-2.5076,2.50761c-5.70641,5.70641 -14.95942,5.70641 -20.66583,0l-106.68284,-106.68283l0.03215,-0.02338l-21.67997,-21.67998c-10.34402,6.44145 -22.23133,10.2087 -34.5807,10.82245c-17.90234,0.88847 -35.49534,-4.91292 -49.35585,-16.27898c-13.86066,-11.3646 -22.99764,-27.4799 -25.6331,-45.20938c-0.88935,-5.98216 -1.01693,-12.00378 -0.41326,-17.92968l45.31694,45.31693c11.41355,11.41282 29.91854,11.41282 41.33194,0l23.17329,-23.17328c11.41282,-11.4134 11.41429,-29.91839 0,-41.33194l-45.31767,-45.31767c5.89522,-0.60074 11.88526,-0.47771 17.83717,0.39908c17.73313,2.61224 33.86057,11.72802 45.24416,25.57364c11.3836,13.84561 17.20837,31.43085 16.34328,49.33437c-0.59913,12.36939 -4.36055,24.27935 -10.80638,34.64295z" fill="#0085ff" fill-rule="evenodd" stroke="none" stroke-width="1"/><path d="M323.15001,62.1c0.4635,-3.564 5.958,-1.044 8.55,-1.8c1.269,-3.2985 7.1325,-1.197 10.35,-1.8c0.252,2.79 3.5055,1.44 5.4,2.25c-0.4455,2.1465 2.385,1.1025 3.6,1.35c0,0.5985 0,1.2015 0,1.8c-0.6615,-0.1215 -0.4005,-0.9 -0.45,-1.35c-1.656,-0.288 -5.2785,1.0035 -4.95,-1.8c-1.215,-0.2475 -4.0455,0.7965 -3.6,-1.35c-6.3045,-2.1825 -10.6605,2.673 -17.1,1.35c-0.45,2.8125 -4.9005,1.4445 -7.2,1.8c0.207,0.945 -0.3555,1.6695 -1.35,1.35c0.0135,-3.2715 4.6575,-1.233 6.75,-1.8z" fill-opacity="0" fill="#000000" fill-rule="nonzero" stroke="#3f3f41" stroke-width="0.3"/><path d="M317.75001,62.55c2.2995,-0.3555 6.75,1.0125 7.2,-1.8c6.4395,1.323 10.7955,-3.5325 17.1,-1.35c-0.4455,2.1465 2.385,1.1025 3.6,1.35c-0.3285,2.8035 3.294,1.512 4.95,1.8c0.0495,0.45 -0.2115,1.2285 0.45,1.35c3.474,-1.017 4.7565,2.601 8.1,1.8c0.4005,1.1475 0.6795,2.2275 2.25,1.8c0.153,0.8415 1.746,0.1575 1.35,1.35c-5.859,-0.2295 -9.7605,3.1725 -15.75,2.25c0.0315,3.7485 -6.678,-0.144 -6.75,3.15c-3.051,0.6615 -8.82,-1.602 -9.9,1.8c-5.274,-1.053 -8.208,3.0105 -13.5,1.8c-0.4365,4.212 -7.218,-0.603 -7.65,3.6c-2.7,0 -5.4,0 -8.1,0c-0.126,3.681 -6.993,-0.1395 -7.2,3.15c-2.646,0.3735 -6.5025,-0.972 -8.217,1.233c-1.8135,1.881 -7.047,-1.3185 -7.083,2.367c-2.7675,0.5355 -7.2405,-1.4175 -8.55,1.8c-2.3985,0 -4.8015,0 -7.2,0c0.0315,3.7485 -6.678,-0.144 -6.75,3.15c-3.051,0.6615 -8.82,-1.602 -9.9,1.8c-2.394,0.369 -6.228,-1.134 -7.2,1.8c-3.096,0.0765 -6.5385,-0.702 -8.55,1.8c0,30.2985 0,60.6015 0,90.9c-1.215,-0.2475 -4.0455,0.7965 -3.6,-1.35c-1.638,-0.1575 -5.049,0.423 -4.95,-1.8c-3.069,0.8955 -4.572,-1.422 -6.75,-1.8c0,8.4015 0,16.7985 0,25.2c-0.7695,3.483 1.62,9.207 -1.35,11.25c-0.6885,-0.4185 -1.4265,-0.5535 -2.25,-0.45c0,-6.8985 0,-13.8015 0,-20.7c-1.5975,-1.1925 -5.0625,-0.567 -5.4,-3.15c-1.4985,0 -3.0015,0 -4.5,0c-0.4185,-1.125 -0.6975,-2.286 -2.25,-1.8c0,-34.9515 0,-69.8985 0,-104.85c2.7585,0.5715 3.4965,-2.6595 6.3,-1.8c2.043,-0.1035 5.1075,0.5625 5.85,-1.8c1.6515,0 3.2985,0 4.95,0c1.5705,0.4275 1.8495,-0.6525 2.25,-1.8c2.1015,0 4.1985,0 6.3,0c0.6615,-0.1215 0.4005,-0.9 0.45,-1.35c2.52,-0.4995 7.5105,1.332 8.1,-1.8c2.547,-0.2745 6.4485,0.8775 7.65,-1.8c2.1015,0 4.1985,0 6.3,0c0.8685,-2.8215 4.4775,-1.4985 6.75,-1.8c1.5705,0.4275 1.8495,-0.6525 2.25,-1.8c2.1015,0 4.1985,0 6.3,0c1.5705,0.4275 1.8495,-0.6525 2.25,-1.8c1.4985,0 3.0015,0 4.5,0c1.0035,0.036 2.7495,0.234 2.25,-1.35c2.673,-0.459 7.785,1.233 8.55,-1.8c2.1375,-0.3465 6.498,1.0575 6.75,-1.8c3.0735,-0.0585 6.678,0.666 8.55,-1.8c1.6515,0 3.2985,0 4.95,0c1.5705,0.4275 1.8495,-0.6525 2.25,-1.8c2.25,0 4.5,0 6.75,0c0.252,-2.8575 4.6125,-1.4535 6.75,-1.8c0.9945,0.3195 1.557,-0.405 1.35,-1.35z" fill-opacity="0" fill="#000000" fill-rule="nonzero" stroke="#f29508" stroke-width="0.3"/><path d="M361.40001,67.5c5.7465,0.9225 9.3465,-3.1005 15.3,-1.8c1.6155,-3.4245 8.2575,-1.449 11.7,-1.35c-0.4455,2.1465 2.385,1.1025 3.6,1.35c1.224,3.3795 8.0055,1.71 8.55,5.4c1.2555,0.2565 3.9915,-0.8415 3.6,1.35c1.6515,0 3.2985,0 4.95,0c0.324,1.3365 0.9045,1.9125 2.25,2.25c-0.792,2.7045 -4.995,0.7605 -7.2,1.35c-0.8685,2.8215 -4.4775,1.4985 -6.75,1.8c-0.441,1.962 -2.052,1.512 -3.6,1.35c-2.1375,0.3465 -6.498,-1.0575 -6.75,1.8c-2.214,0.6795 -7.443,-1.6515 -7.2,1.8c-2.583,0.7965 -8.46,-1.8225 -8.55,1.8c-2.394,0.5535 -6.6825,-1.458 -7.2,1.8c-2.6415,0.486 -6.9075,-1.332 -8.1,1.8c-1.8,0 -3.6,0 -5.4,0c-0.4095,4.0905 -8.0055,-0.4005 -8.55,3.15c-2.52,0.4995 -7.5105,-1.332 -8.1,1.8c-2.2815,0.333 -6.7815,-0.9765 -7.2,1.8c-2.5695,0.702 -7.7895,-1.5255 -8.55,1.35c-2.691,0.3735 -7.686,-0.855 -8.55,1.8c-2.25,0 -4.5,0 -6.75,0c-0.198,4.176 -7.209,-0.5895 -7.2,3.6c-2.592,0.756 -8.0865,-1.764 -8.55,1.8c-2.25,0 -4.5,0 -6.75,0c-0.396,4.518 -8.4105,-0.8955 -9,3.6c-1.8945,0.576 -6.1785,-1.332 -6.3,1.35c-8.9505,-2.169 -4.2615,9.279 -5.4,14.4c0,26.2485 0,52.5015 0,78.75c2.493,0.0945 3.717,2.853 6.75,1.8c-0.441,2.2635 2.1915,1.8135 3.6,1.8c-0.3465,1.7775 1.935,1.737 3.15,1.8c0,12.6 0,25.2 0,37.8c0,2.8485 0,5.7015 0,8.55c1.548,-0.486 1.8315,0.675 2.25,1.8c1.4985,0 3.0015,0 4.5,0c-0.4365,2.4615 2.5785,1.701 4.05,1.8c-0.126,2.3535 3.294,1.6785 4.95,1.8c1.314,2.2455 5.364,3.24 8.55,3.15c-0.324,3.699 5.49,-0.0855 5.4,3.6c1.5525,0.5175 1.5795,-1.1565 2.25,-1.8c2.5515,0 5.0985,0 7.65,0c0.5175,-3.258 4.8105,-1.2465 7.2,-1.8c0.5715,-3.4695 8.0775,0.783 8.55,-3.15c2.2185,-0.63 7.0695,1.5795 7.2,-1.8c1.4985,0 3.0015,0 4.5,0c0,7.2 0,14.4 0,21.6c-1.4085,-0.0135 -4.041,-0.4635 -3.6,1.8c-2.7,0 -5.4,0 -8.1,0c-0.4275,3.1635 -4.4685,1.305 -6.75,1.8c-0.4995,3.5055 -5.0985,0.774 -7.299,2.151c-2.097,1.944 -5.4315,1.4445 -8.451,1.449c0.207,2.4795 -3.42,0.9045 -4.95,1.35c0.576,-2.7 -4.3965,0.0045 -3.6,-3.15c-1.6515,0 -3.2985,0 -4.95,0c0.4635,-2.2545 -2.205,-1.8045 -3.6,-1.8c0.126,-2.3535 -3.294,-1.6785 -4.95,-1.8c0.4635,-2.2545 -2.205,-1.8045 -3.6,-1.8c0.3735,-3.0825 -5.274,-0.2385 -4.95,-3.15c-1.6515,0 -3.2985,0 -4.95,0c-0.1395,-2.8845 -4.203,-1.3545 -5.4,-3.15c0,3.4515 0,6.8985 0,10.35c-1.3365,-0.216 -4.023,0.7605 -4.05,-1.35c-1.1925,-0.396 -0.5085,1.197 -1.35,1.35c0,-0.5985 0,-1.2015 0,-1.8c2.124,-0.1395 2.349,2.2725 4.95,1.35c0,-3.2985 0,-6.6015 0,-9.9c-1.395,0.0045 -4.0635,0.4545 -3.6,-1.8c-1.5435,-0.072 -4.707,0.4005 -4.5,-1.8c-1.764,0.0225 -3.9105,0.468 -4.05,-1.8c-1.9035,-0.1845 -4.779,0.846 -4.95,-1.8c-1.53,-0.4455 -5.157,1.1295 -4.95,-1.35c-1.467,-0.099 -4.3335,0.675 -3.6,-1.8c-3.663,1.1025 -5.139,-2.493 -8.55,-1.8c0,-7.9515 0,-15.8985 0,-23.85c-2.9745,0.144 -3.5415,-2.727 -6.75,-1.8c-0.234,-2.637 -3.132,-1.566 -4.95,-2.25c0.3915,-2.1915 -2.3445,-1.0935 -3.6,-1.35c0,-3.0015 0,-5.9985 0,-9c-0.5895,0.027 -1.638,0.0135 -1.35,-0.9c2.97,-2.043 0.5805,-7.767 1.35,-11.25c0,-8.4015 0,-16.7985 0,-25.2c2.178,0.378 3.681,2.6955 6.75,1.8c-0.099,2.223 3.312,1.6425 4.95,1.8c-0.4455,2.1465 2.385,1.1025 3.6,1.35c0,-30.2985 0,-60.6015 0,-90.9c2.0115,-2.502 5.454,-1.7235 8.55,-1.8c0.972,-2.934 4.806,-1.431 7.2,-1.8c1.08,-3.402 6.849,-1.1385 9.9,-1.8c0.072,-3.294 6.7815,0.5985 6.75,-3.15c2.3985,0 4.8015,0 7.2,0c1.3095,-3.2175 5.7825,-1.2645 8.55,-1.8c0.036,-3.6855 5.2695,-0.486 7.083,-2.367c1.7145,-2.205 5.571,-0.8595 8.217,-1.233c0.207,-3.2895 7.074,0.531 7.2,-3.15c2.7,0 5.4,0 8.1,0c0.432,-4.203 7.2135,0.612 7.65,-3.6c5.292,1.2105 8.226,-2.853 13.5,-1.8c1.08,-3.402 6.849,-1.1385 9.9,-1.8c0.072,-3.294 6.7815,0.5985 6.75,-3.15c5.9895,0.9225 9.891,-2.4795 15.75,-2.25c0.396,-1.1925 -1.197,-0.5085 -1.35,-1.35M237.65001,193.05c-2.4525,-0.4905 -4.6575,-2.0295 -6.75,-3.15c-1.044,15.075 -0.153,30.636 -0.45,45.9c1.4805,-0.459 1.6965,1.0755 2.25,1.8c1.5435,0.072 4.707,-0.4005 4.5,1.8c1.764,-0.0225 3.9105,-0.468 4.05,1.8c1.4175,0.387 4.797,-1.035 4.5,1.35c1.4715,0.099 4.4865,-0.6615 4.05,1.8c1.656,0.2835 5.2785,-1.0035 4.95,1.8c1.539,-0.036 3.114,-0.081 4.5,0.45c1.0485,-14.76 0.153,-30.0375 0.45,-45c-2.061,0.702 -1.5345,-1.9485 -3.501,-1.449c-0.9405,-0.9675 -3.78,0.558 -3.249,-1.701c-1.728,0.1755 -3.348,-0.171 -4.95,-0.45c0.3915,-2.1915 -2.3445,-1.0935 -3.6,-1.35c-0.8595,-2.7495 -4.8465,-1.8135 -6.75,-3.6z" fill-opacity="0" fill="#000000" fill-rule="nonzero" stroke="#3f3f41" stroke-width="0.3"/><path d="M302.90001,65.7c-0.4005,1.1475 -0.6795,2.2275 -2.25,1.8c0.4005,-1.1475 0.6795,-2.2275 2.25,-1.8z" fill-opacity="0" fill="#000000" fill-rule="nonzero" stroke="#3f3f41" stroke-width="0.3"/><path d="M270.05001,72.45c2.3985,0 4.8015,0 7.2,0c0.5895,-3.132 5.58,-1.3005 8.1,-1.8c0.4185,-2.7765 4.9185,-1.467 7.2,-1.8c-0.495,-1.9935 2.0205,-1.188 3.15,-1.35c-1.872,2.466 -5.4765,1.7415 -8.55,1.8c-0.252,2.8575 -4.6125,1.4535 -6.75,1.8c-0.765,3.033 -5.877,1.341 -8.55,1.8c0.4995,1.584 -1.2465,1.386 -2.25,1.35c0.4185,-0.513 0.486,-1.1475 0.45,-1.8z" fill-opacity="0" fill="#000000" fill-rule="nonzero" stroke="#3f3f41" stroke-width="0.3"/><path d="M265.09999,74.25c-0.4005,1.1475 -0.6795,2.2275 -2.25,1.8c0.4005,-1.1475 0.6795,-2.2275 2.25,-1.8z" fill-opacity="0" fill="#000000" fill-rule="nonzero" stroke="#3f3f41" stroke-width="0.3"/><path d="M256.55001,76.05c-0.4005,1.1475 -0.6795,2.2275 -2.25,1.8c0.2475,-1.2465 1.251,-1.3455 2.25,-1.8z" fill-opacity="0" fill="#000000" fill-rule="nonzero" stroke="#3f3f41" stroke-width="0.3"/><path d="M273.2,207c-1.215,-0.063 -3.4965,-0.0225 -3.15,-1.8c-1.4085,0.0135 -4.041,0.4635 -3.6,-1.8c-3.033,1.053 -4.257,-1.7055 -6.75,-1.8c0,-26.2485 0,-52.5015 0,-78.75c1.1385,-5.121 -3.5505,-16.569 5.4,-14.4c0.1215,-2.682 4.4055,-0.774 6.3,-1.35c0.5895,-4.4955 8.604,0.918 9,-3.6c2.25,0 4.5,0 6.75,0c0.4635,-3.564 5.958,-1.044 8.55,-1.8c-0.009,-4.1895 7.002,0.576 7.2,-3.6c2.25,0 4.5,0 6.75,0c0.864,-2.655 5.859,-1.4265 8.55,-1.8c0.7605,-2.8755 5.9805,-0.648 8.55,-1.35c0.4185,-2.7765 4.9185,-1.467 7.2,-1.8c0.5895,-3.132 5.58,-1.3005 8.1,-1.8c0.5445,-3.5505 8.1405,0.9405 8.55,-3.15c1.8,0 3.6,0 5.4,0c1.1925,-3.132 5.4585,-1.314 8.1,-1.8c0.5175,-3.258 4.806,-1.2465 7.2,-1.8c0.09,-3.6225 5.967,-1.0035 8.55,-1.8c-0.243,-3.4515 4.986,-1.1205 7.2,-1.8c0.252,-2.8575 4.6125,-1.4535 6.75,-1.8c1.026,0.3915 1.4535,1.107 1.8,2.25c1.2555,0.2565 3.9915,-0.8415 3.6,1.35c1.6515,0 3.2985,0 4.95,0c-0.792,2.772 2.4435,1.215 3.699,2.151c1.521,0.657 2.682,2.0835 4.851,1.449c-0.4635,2.2545 2.205,1.8045 3.6,1.8c0,0.45 0,0.9 0,1.35c1.6155,0.891 5.553,-0.684 4.95,2.25c1.215,0.2475 4.0455,-0.7965 3.6,1.35c1.638,0.27 3.204,0.639 4.95,0.45c0.099,0.4275 -0.1755,1.233 0.45,1.35c1.0485,0 2.1015,0 3.15,0c0.441,0.738 1.881,0.4185 1.35,1.8c3.5685,-0.963 4.95,2.7585 8.55,1.8c2.0565,13.833 0.333,28.8855 0.9,43.2c-0.567,14.1795 1.1565,28.944 -0.9,42.75c-2.1015,0 -4.1985,0 -6.3,0c-0.9675,-0.1395 -2.241,0.036 -1.8,1.35c-2.151,0.288 -6.444,-0.8775 -6.75,1.8c-2.691,0.3735 -7.686,-0.855 -8.55,1.8c-4.4235,-1.2285 -6.804,2.1735 -10.8,1.8c-1.584,-0.2205 -3.2715,-0.0045 -3.6,1.8c-2.25,0 -4.5,0 -6.75,0c-0.18,2.7855 -4.266,1.485 -6.3,1.8c-1.0035,-0.036 -2.7495,-0.234 -2.25,1.35c-2.52,0.4995 -7.5105,-1.332 -8.1,1.8c-3.0195,-0.243 -6.0705,-0.081 -8.1,1.8c-2.5155,0.4275 -6.57,-1.2375 -7.65,1.8c-1.6515,0 -3.2985,0 -4.95,0c-1.962,-0.414 -1.917,1.665 -3.6,1.8c-1.8,0 -3.6,0 -5.4,0c-0.945,-0.207 -1.6695,0.3555 -1.35,1.35c-2.2905,-0.0405 -4.608,-0.0855 -6.75,0.45c0,0.45 0,0.9 0,1.35c0,0 -0.225,0.0225 -0.45,0c-0.99,0.198 -2.4975,-0.432 -3.15,0.45c0,0 -0.225,0 -0.45,0c-0.45,0 -0.9,0 -1.35,0c-0.225,0 -0.45,0 -0.45,0c-1.062,0.0675 -3.213,-0.459 -2.7,1.35c-2.4345,-0.0135 -4.923,-0.135 -7.2,0.45c0,0.45 0,0.9 0,1.35c-1.6515,0 -3.2985,0 -4.95,0c-0.5985,0 -1.2015,0 -1.8,0c0,6.8985 0,13.8015 0,20.7c0.2565,2.943 -3.645,1.431 -5.4,1.8c-0.945,-0.207 -1.6695,0.3555 -1.35,1.35c-1.728,0.2565 -4.0095,-0.5355 -5.4,0.45c-0.5985,0 -1.2015,0 -1.8,0c-0.945,-0.207 -1.6695,0.3555 -1.35,1.35c-0.216,-0.0405 -0.45,0 -0.45,0c-0.9675,0.1395 -2.241,-0.0405 -1.8,-1.35c-1.638,-0.27 -3.204,-0.639 -4.95,-0.45c0.09,-2.3355 -3.42,-1.1205 -4.95,-1.8c0.063,-1.9395 -2.376,-1.215 -3.6,-1.35c-0.54,-3.2085 -5.292,-0.2655 -5.4,-3.6c-1.215,-0.2475 -4.0455,0.7965 -3.6,-1.35c-0.945,0.3825 -2.0745,-1.1115 -2.7,0c-1.0395,3.492 -0.1575,7.8705 -0.45,11.7c-0.6345,2.925 2.0205,10.485 -3.15,8.55c0.4995,-1.584 -1.2465,-1.386 -2.25,-1.35c0,-12.6 0,-25.2 0,-37.8z" fill-opacity="0" fill="#000000" fill-rule="nonzero" stroke="#f29508" stroke-width="0.3"/><path d="M232.25001,82.8c0.252,-2.8575 4.6125,-1.4535 6.75,-1.8c-0.4995,-1.584 1.2465,-1.386 2.25,-1.35c-1.2015,2.6775 -5.103,1.5255 -7.65,1.8c-0.5895,3.132 -5.58,1.3005 -8.1,1.8c-0.0495,0.45 0.2115,1.2285 -0.45,1.35c0.1215,-3.357 4.986,-1.179 7.2,-1.8z" fill-opacity="0" fill="#000000" fill-rule="nonzero" stroke="#3f3f41" stroke-width="0.3"/><path d="M218.75001,84.6c-0.4005,1.1475 -0.6795,2.2275 -2.25,1.8c0.4005,-1.1475 0.6795,-2.2275 2.25,-1.8z" fill-opacity="0" fill="#000000" fill-rule="nonzero" stroke="#3f3f41" stroke-width="0.3"/><path d="M197.60001,94.5c-1.719,-4.8915 2.6235,-4.167 4.05,-6.75c2.25,0 4.5,0 6.75,0c-0.495,-1.9935 2.0205,-1.188 3.15,-1.35c-0.7425,2.3625 -3.807,1.6965 -5.85,1.8c-2.8035,-0.8595 -3.5415,2.3715 -6.3,1.8c0,34.9515 0,69.8985 0,104.85c0,1.6515 0,3.2985 0,4.95c-0.45,0 -0.9,0 -1.35,0c-1.0125,-34.884 -0.1755,-70.2315 -0.45,-105.3z" fill-opacity="0" fill="#000000" fill-rule="nonzero" stroke="#3f3f41" stroke-width="0.3"/><path d="M429.80001,93.6c-1.746,0.189 -3.312,-0.18 -4.95,-0.45c0.4455,-2.1465 -2.385,-1.1025 -3.6,-1.35c0.603,-2.934 -3.3345,-1.359 -4.95,-2.25c0,-0.45 0,-0.9 0,-1.35c1.566,0.531 2.5515,2.0295 4.95,1.35c0.171,2.646 3.0465,1.6155 4.95,1.8c-0.2205,3.132 4.5135,0.414 4.05,3.6c-0.6255,-0.117 -0.351,-0.9225 -0.45,-1.35z" fill-opacity="0" fill="#000000" fill-rule="nonzero" stroke="#3f3f41" stroke-width="0.3"/><path d="M444.20001,141.75c-0.567,-14.3145 1.1565,-29.367 -0.9,-43.2c-3.6,0.9585 -4.9815,-2.763 -8.55,-1.8c0.531,-1.3815 -0.909,-1.062 -1.35,-1.8c1.026,-0.207 2.142,0.0495 1.8,1.35c1.6515,0 3.2985,0 4.95,0c0.2025,1.7685 1.485,2.0565 3.15,1.8c0.3195,1.3365 0.9045,1.9125 2.25,2.25c0,28.0485 0,56.1015 0,84.15c-0.7515,0 -1.4985,0 -2.25,0c2.0565,-13.806 0.333,-28.5705 0.9,-42.75z" fill-opacity="0" fill="#000000" fill-rule="nonzero" stroke="#3f3f41" stroke-width="0.3"/><path d="M419.90001,189.45c0.864,-2.655 5.859,-1.4265 8.55,-1.8c0.306,-2.6775 4.599,-1.512 6.75,-1.8c-0.441,-1.314 0.8325,-1.4895 1.8,-1.35c0.009,4.1895 -7.002,-0.576 -7.2,3.6c-2.25,0 -4.5,0 -6.75,0c-0.7065,3.2085 -5.8995,1.2555 -8.55,1.8c0.099,2.223 -3.312,1.6425 -4.95,1.8c0,12.4515 0,24.8985 0,37.35c1.431,5.0805 -3.141,6.1245 -7.2,5.4c0.207,2.2005 -2.9565,1.728 -4.5,1.8c-2.52,-0.585 -3.735,0.585 -5.4,1.35c-1.0305,-13.428 -0.162,-27.333 -0.45,-40.95c-2.8485,0 -5.7015,0 -8.55,0c-0.252,2.8575 -4.6125,1.4535 -6.75,1.8c-0.765,3.033 -5.877,1.341 -8.55,1.8c0.441,1.314 -0.8325,1.4895 -1.8,1.35c1.08,-3.0375 5.1345,-1.3725 7.65,-1.8c2.0295,-1.881 5.0805,-2.043 8.1,-1.8c0.5895,-3.132 5.58,-1.3005 8.1,-1.8c-0.4995,-1.584 1.2465,-1.386 2.25,-1.35c0,13.6485 0,27.3015 0,40.95c2.25,0 4.5,0 6.75,0c-0.0945,-2.3985 3.276,-1.656 4.95,-1.8c2.3985,0.6795 3.384,-0.819 4.95,-1.35c0,-13.8015 0,-27.5985 0,-41.4c3.996,0.3735 6.3765,-3.0285 10.8,-1.8z" fill-opacity="0" fill="#000000" fill-rule="nonzero" stroke="#3f3f41" stroke-width="0.3"/><path d="M248.00001,198c1.602,0.279 3.222,0.6255 4.95,0.45c-0.531,2.259 2.3085,0.7335 3.249,1.701c1.9665,-0.4995 1.44,2.151 3.501,1.449c-0.297,14.9625 0.5985,30.24 -0.45,45c-1.386,-0.531 -2.961,-0.486 -4.5,-0.45c0.3285,-2.8035 -3.294,-1.5165 -4.95,-1.8c0.4365,-2.4615 -2.5785,-1.701 -4.05,-1.8c0.297,-2.385 -3.0825,-0.963 -4.5,-1.35c-0.1395,-2.268 -2.286,-1.8225 -4.05,-1.8c0.207,-2.2005 -2.9565,-1.728 -4.5,-1.8c-0.5535,-0.7245 -0.7695,-2.259 -2.25,-1.8c0.297,-15.264 -0.594,-30.825 0.45,-45.9c2.0925,1.1205 4.2975,2.6595 6.75,3.15c1.9035,1.7865 5.8905,0.8505 6.75,3.6c1.2555,0.2565 3.9915,-0.8415 3.6,1.35z" fill-opacity="0" fill="#000000" fill-rule="nonzero" stroke="#008af5" stroke-width="0.3"/><path d="M398.75001,193.05c2.25,0 4.5,0 6.75,0c0.3285,-1.8045 2.016,-2.0205 3.6,-1.8c0,13.8015 0,27.5985 0,41.4c-1.566,0.531 -2.5515,2.0295 -4.95,1.35c-1.674,0.144 -5.0445,-0.5985 -4.95,1.8c-2.25,0 -4.5,0 -6.75,0c0,-13.6485 0,-27.3015 0,-40.95c2.034,-0.315 6.12,0.9855 6.3,-1.8z" fill-opacity="0" fill="#000000" fill-rule="nonzero" stroke="#008af5" stroke-width="0.3"/><path d="M199.40001,199.8c0,-1.6515 0,-3.2985 0,-4.95c1.5525,-0.486 1.8315,0.675 2.25,1.8c1.4985,0 3.0015,0 4.5,0c0.3375,2.583 3.8025,1.9575 5.4,3.15c0,6.8985 0,13.8015 0,20.7c0.8235,-0.1035 1.5615,0.0315 2.25,0.45c-0.288,0.9135 0.7605,0.927 1.35,0.9c0,3.0015 0,5.9985 0,9c1.2555,0.2565 3.9915,-0.8415 3.6,1.35c1.818,0.684 4.716,-0.387 4.95,2.25c3.2085,-0.927 3.7755,1.944 6.75,1.8c0,7.9515 0,15.8985 0,23.85c3.411,-0.693 4.887,2.9025 8.55,1.8c-0.7335,2.475 2.133,1.701 3.6,1.8c-0.207,2.4795 3.42,0.9045 4.95,1.35c0.171,2.646 3.0465,1.6155 4.95,1.8c0.1395,2.268 2.286,1.8225 4.05,1.8c-0.207,2.2005 2.9565,1.728 4.5,1.8c-0.4635,2.2545 2.205,1.8045 3.6,1.8c0,3.2985 0,6.6015 0,9.9c-2.601,0.9225 -2.826,-1.4895 -4.95,-1.35c0,0.5985 0,1.2015 0,1.8c-0.8865,3.132 1.962,9.369 -1.8,10.35c-1.2195,-0.9315 -3.6,0.1665 -3.6,-2.25c-1.1295,-0.162 -3.645,0.6435 -3.15,-1.35c-1.656,-0.1215 -5.076,0.5535 -4.95,-1.8c-1.989,0.3285 -3.7395,-0.153 -4.9185,-1.3815c-1.566,-0.81 -3.9825,0.2655 -4.0815,-2.2185c-1.215,-0.2475 -4.0455,0.7965 -3.6,-1.35c-1.638,-0.27 -3.204,-0.639 -4.95,-0.45c0.342,-1.3005 -0.7785,-1.557 -1.8,-1.35c-1.4535,0.0225 -3.7935,0.477 -3.15,-1.8c-1.647,-0.054 -3.852,0.3105 -4.9005,-0.9495c-0.6345,-1.89 -4.131,0.387 -3.6495,-2.2005c-1.746,0.189 -3.312,-0.18 -4.95,-0.45c0.4455,-2.1465 -2.385,-1.1025 -3.6,-1.35c-0.3465,-3.2985 -6.219,-0.54 -5.3955,-4.9545c-0.009,-3.6 -0.0045,-7.1955 -0.0045,-10.7955c-1.026,0.207 -2.142,-0.0495 -1.8,-1.35c0,-3.4515 0,-6.8985 0,-10.35c-1.638,-0.27 -3.204,-0.639 -4.95,-0.45c-0.099,-0.4275 0.1755,-1.233 -0.45,-1.35c-0.9,0 -1.8,0 -2.7,0c-0.4185,-1.125 -0.6975,-2.286 -2.25,-1.8c-0.45,0 -0.9,0 -1.35,0c-1.0485,-15.21 -0.153,-30.9375 -0.45,-46.35c1.5705,-0.4275 1.8495,0.6525 2.25,1.8c1.4985,0 3.0015,0 4.5,0c0.099,0.4275 -0.1755,1.233 0.45,1.35c1.2015,0 2.3985,0 3.6,0c0.45,0 0.9,0 1.35,0z" fill-opacity="0" fill="#000000" fill-rule="nonzero" stroke="#008af5" stroke-width="0.3"/><path d="M185.90001,242.55c0,-15.3 0,-30.6 0,-45.9c1.341,-0.252 4.0005,-1.143 3.6,1.35c1.6695,0.288 5.2605,-1.0215 4.95,1.8c-0.6255,-0.117 -0.351,-0.9225 -0.45,-1.35c-1.4985,0 -3.0015,0 -4.5,0c-0.4005,-1.1475 -0.6795,-2.2275 -2.25,-1.8c0.297,15.4125 -0.5985,31.14 0.45,46.35c-0.513,-0.4185 -1.1475,-0.486 -1.8,-0.45z" fill-opacity="0" fill="#000000" fill-rule="nonzero" stroke="#3f3f41" stroke-width="0.3"/><path d="M361.40001,201.6c-0.585,0.576 -0.351,1.1925 0,1.8c-1.2015,0 -2.3985,0 -3.6,0c1.683,-0.135 1.638,-2.214 3.6,-1.8z" fill-opacity="0" fill="#000000" fill-rule="nonzero" stroke="#3f3f41" stroke-width="0.3"/><path d="M344.30001,205.2c2.142,-0.5355 4.4595,-0.4905 6.75,-0.45c-0.3195,-0.9945 0.405,-1.557 1.35,-1.35c0,0.45 0,0.9 0,1.35c-2.1645,0.531 -4.4415,0.495 -6.75,0.45c0.207,0.945 -0.3555,1.6695 -1.35,1.35c0,-0.45 0,-0.9 0,-1.35z" fill-opacity="0" fill="#000000" fill-rule="nonzero" stroke="#3f3f41" stroke-width="0.3"/><path d="M345.65001,205.2c2.3085,0.045 4.5855,0.081 6.75,-0.45c0,-0.45 0,-0.9 0,-1.35c1.8,0 3.6,0 5.4,0c0,13.8015 0,27.5985 0,41.4c-2.664,1.584 -6.453,2.223 -10.35,1.8c-0.369,2.7765 -5.04,0.7155 -7.2,1.35c0,-13.6485 0,-27.3015 0,-40.95c0.225,0 0.45,0 0.45,0c0.99,-0.198 2.4975,0.432 3.15,-0.45c0.225,0.0225 0.45,0 0.45,0c0.9945,0.3195 1.557,-0.405 1.35,-1.35z" fill-opacity="0" fill="#000000" fill-rule="nonzero" stroke="#008af5" stroke-width="0.3"/><path d="M343.85001,206.55c-0.6525,0.882 -2.16,0.252 -3.15,0.45c0.6525,-0.882 2.16,-0.252 3.15,-0.45z" fill-opacity="0" fill="#000000" fill-rule="nonzero" stroke="#3f3f41" stroke-width="0.3"/><path d="M328.55001,208.8c2.277,-0.585 4.7655,-0.4635 7.2,-0.45c-0.513,-1.809 1.638,-1.2825 2.7,-1.35c0,0.45 0,0.9 0,1.35c-2.5605,0.6615 -5.3775,0.414 -8.1,0.45c0.441,1.3095 -0.8325,1.4895 -1.8,1.35c0,-0.45 0,-0.9 0,-1.35z" fill-opacity="0" fill="#000000" fill-rule="nonzero" stroke="#3f3f41" stroke-width="0.3"/><path d="M338.90001,247.95c0,-13.6485 0,-27.3015 0,-40.95c0.45,0 0.9,0 1.35,0c0,13.6485 0,27.3015 0,40.95c-0.45,0 -0.9,0 -1.35,0z" fill-opacity="0" fill="#000000" fill-rule="nonzero" stroke="#3f3f41" stroke-width="0.3"/><path d="M321.80001,210.15c0.5985,0 1.2015,0 1.8,0c-1.044,6.6735 -0.1575,13.8375 -0.45,20.7c-0.45,0 -0.9,0 -1.35,0c0,-6.8985 0,-13.8015 0,-20.7z" fill-opacity="0" fill="#000000" fill-rule="nonzero" stroke="#3f3f41" stroke-width="0.3"/><path d="M281.75001,225.9c-0.4455,2.1465 2.385,1.1025 3.6,1.35c0.108,3.3345 4.86,0.3915 5.4,3.6c-1.026,0.207 -2.142,-0.0495 -1.8,-1.35c-1.4085,0.0135 -4.041,0.4635 -3.6,-1.8c-1.746,0.189 -3.312,-0.18 -4.95,-0.45c0.3195,-0.9945 -0.405,-1.557 -1.35,-1.35c0.6255,-1.1115 1.755,0.3825 2.7,0z" fill-opacity="0" fill="#000000" fill-rule="nonzero" stroke="#3f3f41" stroke-width="0.3"/><path d="M302.90001,236.25c-0.216,-2.8035 -3.4155,-1.5255 -5.4,-1.8c0.729,-2.583 -3.2535,-0.18 -3.15,-2.25c1.53,0.6795 5.04,-0.5355 4.95,1.8c1.746,-0.189 3.312,0.18 4.95,0.45c-0.441,1.3095 0.8325,1.4895 1.8,1.35c-0.6525,0.882 -2.16,0.252 -3.15,0.45z" fill-opacity="0" fill="#000000" fill-rule="nonzero" stroke="#3f3f41" stroke-width="0.3"/><path d="M315.05001,234c-0.3195,-0.9945 0.405,-1.557 1.35,-1.35c0,0.45 0,0.9 0,1.35c-2.142,0.5355 -4.4595,0.4905 -6.75,0.45c1.3905,-0.9855 3.672,-0.1935 5.4,-0.45z" fill-opacity="0" fill="#000000" fill-rule="nonzero" stroke="#3f3f41" stroke-width="0.3"/><path d="M307.84999,234.45c0.3195,0.9945 -0.405,1.557 -1.35,1.35c-0.3195,-0.9945 0.405,-1.557 1.35,-1.35z" fill-opacity="0" fill="#000000" fill-rule="nonzero" stroke="#3f3f41" stroke-width="0.3"/><path d="M189.05001,243c1.5525,-0.486 1.8315,0.675 2.25,1.8c-1.116,-0.0135 -1.926,-0.7605 -2.25,-1.8z" fill-opacity="0" fill="#000000" fill-rule="nonzero" stroke="#3f3f41" stroke-width="0.3"/><path d="M198.05001,246.6c-1.485,-0.0945 -4.464,0.675 -4.05,-1.8c0.6255,0.117 0.351,0.9225 0.45,1.35c1.746,-0.189 3.312,0.18 4.95,0.45c0,3.4515 0,6.8985 0,10.35c-2.9025,-1.9575 -0.63,-7.092 -1.35,-10.35z" fill-opacity="0" fill="#000000" fill-rule="nonzero" stroke="#3f3f41" stroke-width="0.3"/><path d="M254.30001,291.15c-3.267,0.126 -7.497,-0.27 -8.55,-3.15c-1.773,0.306 -3.2445,-0.4635 -4.95,-0.45c0.4455,-2.1465 -2.385,-1.1025 -3.6,-1.35c0.909,-3.5865 -5.31,-0.225 -4.95,-3.6c-1.935,-0.054 -4.725,0.4365 -5.4,-1.8c1.0215,-0.207 2.142,0.0495 1.8,1.35c1.746,-0.189 3.312,0.18 4.95,0.45c-0.4455,2.1465 2.385,1.1025 3.6,1.35c0.099,2.484 2.5155,1.4085 4.0815,2.2185c1.179,1.2285 2.9295,1.71 4.9185,1.3815c-0.126,2.3535 3.294,1.6785 4.95,1.8c-0.495,1.9935 2.0205,1.188 3.15,1.35c0,2.4165 2.3805,1.3185 3.6,2.25c-1.4085,0.0135 -4.041,0.4635 -3.6,-1.8z" fill-opacity="0" fill="#000000" fill-rule="nonzero" stroke="#3f3f41" stroke-width="0.3"/><path d="M323.15001,62.1c0.4635,-3.564 5.958,-1.044 8.55,-1.8c1.269,-3.2985 7.1325,-1.197 10.35,-1.8c0.252,2.79 3.5055,1.44 5.4,2.25c-0.4455,2.1465 2.385,1.1025 3.6,1.35c0,0.5985 0,1.2015 0,1.8c-0.6615,-0.1215 -0.4005,-0.9 -0.45,-1.35c-1.656,-0.288 -5.2785,1.0035 -4.95,-1.8c-1.215,-0.2475 -4.0455,0.7965 -3.6,-1.35c-6.3045,-2.1825 -10.6605,2.673 -17.1,1.35c-0.45,2.8125 -4.9005,1.4445 -7.2,1.8c0.207,0.945 -0.3555,1.6695 -1.35,1.35c0.0135,-3.2715 4.6575,-1.233 6.75,-1.8z" fill="#3f3f41" fill-rule="nonzero" stroke="#000000" stroke-width="1"/><path d="M317.75001,62.55c2.2995,-0.3555 6.75,1.0125 7.2,-1.8c6.4395,1.323 10.7955,-3.5325 17.1,-1.35c-0.4455,2.1465 2.385,1.1025 3.6,1.35c-0.3285,2.8035 3.294,1.512 4.95,1.8c0.0495,0.45 -0.2115,1.2285 0.45,1.35c3.474,-1.017 4.7565,2.601 8.1,1.8c0.4005,1.1475 0.6795,2.2275 2.25,1.8c0.153,0.8415 1.746,0.1575 1.35,1.35c-5.859,-0.2295 -9.7605,3.1725 -15.75,2.25c0.0315,3.7485 -6.678,-0.144 -6.75,3.15c-3.051,0.6615 -8.82,-1.602 -9.9,1.8c-5.274,-1.053 -8.208,3.0105 -13.5,1.8c-0.4365,4.212 -7.218,-0.603 -7.65,3.6c-2.7,0 -5.4,0 -8.1,0c-0.126,3.681 -6.993,-0.1395 -7.2,3.15c-2.646,0.3735 -6.5025,-0.972 -8.217,1.233c-1.8135,1.881 -7.047,-1.3185 -7.083,2.367c-2.7675,0.5355 -7.2405,-1.4175 -8.55,1.8c-2.3985,0 -4.8015,0 -7.2,0c0.0315,3.7485 -6.678,-0.144 -6.75,3.15c-3.051,0.6615 -8.82,-1.602 -9.9,1.8c-2.394,0.369 -6.228,-1.134 -7.2,1.8c-3.096,0.0765 -6.5385,-0.702 -8.55,1.8c0,30.2985 0,60.6015 0,90.9c-1.215,-0.2475 -4.0455,0.7965 -3.6,-1.35c-1.638,-0.1575 -5.049,0.423 -4.95,-1.8c-3.069,0.8955 -4.572,-1.422 -6.75,-1.8c0,8.4015 0,16.7985 0,25.2c-0.7695,3.483 1.62,9.207 -1.35,11.25c-0.6885,-0.4185 -1.4265,-0.5535 -2.25,-0.45c0,-6.8985 0,-13.8015 0,-20.7c-1.5975,-1.1925 -5.0625,-0.567 -5.4,-3.15c-1.4985,0 -3.0015,0 -4.5,0c-0.4185,-1.125 -0.6975,-2.286 -2.25,-1.8c0,-34.9515 0,-69.8985 0,-104.85c2.7585,0.5715 3.4965,-2.6595 6.3,-1.8c2.043,-0.1035 5.1075,0.5625 5.85,-1.8c1.6515,0 3.2985,0 4.95,0c1.5705,0.4275 1.8495,-0.6525 2.25,-1.8c2.1015,0 4.1985,0 6.3,0c0.6615,-0.1215 0.4005,-0.9 0.45,-1.35c2.52,-0.4995 7.5105,1.332 8.1,-1.8c2.547,-0.2745 6.4485,0.8775 7.65,-1.8c2.1015,0 4.1985,0 6.3,0c0.8685,-2.8215 4.4775,-1.4985 6.75,-1.8c1.5705,0.4275 1.8495,-0.6525 2.25,-1.8c2.1015,0 4.1985,0 6.3,0c1.5705,0.4275 1.8495,-0.6525 2.25,-1.8c1.4985,0 3.0015,0 4.5,0c1.0035,0.036 2.7495,0.234 2.25,-1.35c2.673,-0.459 7.785,1.233 8.55,-1.8c2.1375,-0.3465 6.498,1.0575 6.75,-1.8c3.0735,-0.0585 6.678,0.666 8.55,-1.8c1.6515,0 3.2985,0 4.95,0c1.5705,0.4275 1.8495,-0.6525 2.25,-1.8c2.25,0 4.5,0 6.75,0c0.252,-2.8575 4.6125,-1.4535 6.75,-1.8c0.9945,0.3195 1.557,-0.405 1.35,-1.35z" fill="#ffffff" fill-rule="nonzero" stroke="#000000" stroke-width="1"/><path d="M361.40001,67.5c5.7465,0.9225 9.3465,-3.1005 15.3,-1.8c1.6155,-3.4245 8.2575,-1.449 11.7,-1.35c-0.4455,2.1465 2.385,1.1025 3.6,1.35c1.224,3.3795 8.0055,1.71 8.55,5.4c1.2555,0.2565 3.9915,-0.8415 3.6,1.35c1.6515,0 3.2985,0 4.95,0c0.324,1.3365 0.9045,1.9125 2.25,2.25c-0.792,2.7045 -4.995,0.7605 -7.2,1.35c-0.8685,2.8215 -4.4775,1.4985 -6.75,1.8c-0.441,1.962 -2.052,1.512 -3.6,1.35c-2.1375,0.3465 -6.498,-1.0575 -6.75,1.8c-2.214,0.6795 -7.443,-1.6515 -7.2,1.8c-2.583,0.7965 -8.46,-1.8225 -8.55,1.8c-2.394,0.5535 -6.6825,-1.458 -7.2,1.8c-2.6415,0.486 -6.9075,-1.332 -8.1,1.8c-1.8,0 -3.6,0 -5.4,0c-0.4095,4.0905 -8.0055,-0.4005 -8.55,3.15c-2.52,0.4995 -7.5105,-1.332 -8.1,1.8c-2.2815,0.333 -6.7815,-0.9765 -7.2,1.8c-2.5695,0.702 -7.7895,-1.5255 -8.55,1.35c-2.691,0.3735 -7.686,-0.855 -8.55,1.8c-2.25,0 -4.5,0 -6.75,0c-0.198,4.176 -7.209,-0.5895 -7.2,3.6c-2.592,0.756 -8.0865,-1.764 -8.55,1.8c-2.25,0 -4.5,0 -6.75,0c-0.396,4.518 -8.4105,-0.8955 -9,3.6c-1.8945,0.576 -6.1785,-1.332 -6.3,1.35c-8.9505,-2.169 -4.2615,9.279 -5.4,14.4c0,26.2485 0,52.5015 0,78.75c2.493,0.0945 3.717,2.853 6.75,1.8c-0.441,2.2635 2.1915,1.8135 3.6,1.8c-0.3465,1.7775 1.935,1.737 3.15,1.8c0,12.6 0,25.2 0,37.8c0,2.8485 0,5.7015 0,8.55c1.548,-0.486 1.8315,0.675 2.25,1.8c1.4985,0 3.0015,0 4.5,0c-0.4365,2.4615 2.5785,1.701 4.05,1.8c-0.126,2.3535 3.294,1.6785 4.95,1.8c1.314,2.2455 5.364,3.24 8.55,3.15c-0.324,3.699 5.49,-0.0855 5.4,3.6c1.5525,0.5175 1.5795,-1.1565 2.25,-1.8c2.5515,0 5.0985,0 7.65,0c0.5175,-3.258 4.8105,-1.2465 7.2,-1.8c0.5715,-3.4695 8.0775,0.783 8.55,-3.15c2.2185,-0.63 7.0695,1.5795 7.2,-1.8c1.4985,0 3.0015,0 4.5,0c0,7.2 0,14.4 0,21.6c-1.4085,-0.0135 -4.041,-0.4635 -3.6,1.8c-2.7,0 -5.4,0 -8.1,0c-0.4275,3.1635 -4.4685,1.305 -6.75,1.8c-0.4995,3.5055 -5.0985,0.774 -7.299,2.151c-2.097,1.944 -5.4315,1.4445 -8.451,1.449c0.207,2.4795 -3.42,0.9045 -4.95,1.35c0.576,-2.7 -4.3965,0.0045 -3.6,-3.15c-1.6515,0 -3.2985,0 -4.95,0c0.4635,-2.2545 -2.205,-1.8045 -3.6,-1.8c0.126,-2.3535 -3.294,-1.6785 -4.95,-1.8c0.4635,-2.2545 -2.205,-1.8045 -3.6,-1.8c0.3735,-3.0825 -5.274,-0.2385 -4.95,-3.15c-1.6515,0 -3.2985,0 -4.95,0c-0.1395,-2.8845 -4.203,-1.3545 -5.4,-3.15c0,3.4515 0,6.8985 0,10.35c-1.3365,-0.216 -4.023,0.7605 -4.05,-1.35c-1.1925,-0.396 -0.5085,1.197 -1.35,1.35c0,-0.5985 0,-1.2015 0,-1.8c2.124,-0.1395 2.349,2.2725 4.95,1.35c0,-3.2985 0,-6.6015 0,-9.9c-1.395,0.0045 -4.0635,0.4545 -3.6,-1.8c-1.5435,-0.072 -4.707,0.4005 -4.5,-1.8c-1.764,0.0225 -3.9105,0.468 -4.05,-1.8c-1.9035,-0.1845 -4.779,0.846 -4.95,-1.8c-1.53,-0.4455 -5.157,1.1295 -4.95,-1.35c-1.467,-0.099 -4.3335,0.675 -3.6,-1.8c-3.663,1.1025 -5.139,-2.493 -8.55,-1.8c0,-7.9515 0,-15.8985 0,-23.85c-2.9745,0.144 -3.5415,-2.727 -6.75,-1.8c-0.234,-2.637 -3.132,-1.566 -4.95,-2.25c0.3915,-2.1915 -2.3445,-1.0935 -3.6,-1.35c0,-3.0015 0,-5.9985 0,-9c-0.5895,0.027 -1.638,0.0135 -1.35,-0.9c2.97,-2.043 0.5805,-7.767 1.35,-11.25c0,-8.4015 0,-16.7985 0,-25.2c2.178,0.378 3.681,2.6955 6.75,1.8c-0.099,2.223 3.312,1.6425 4.95,1.8c-0.4455,2.1465 2.385,1.1025 3.6,1.35c0,-30.2985 0,-60.6015 0,-90.9c2.0115,-2.502 5.454,-1.7235 8.55,-1.8c0.972,-2.934 4.806,-1.431 7.2,-1.8c1.08,-3.402 6.849,-1.1385 9.9,-1.8c0.072,-3.294 6.7815,0.5985 6.75,-3.15c2.3985,0 4.8015,0 7.2,0c1.3095,-3.2175 5.7825,-1.2645 8.55,-1.8c0.036,-3.6855 5.2695,-0.486 7.083,-2.367c1.7145,-2.205 5.571,-0.8595 8.217,-1.233c0.207,-3.2895 7.074,0.531 7.2,-3.15c2.7,0 5.4,0 8.1,0c0.432,-4.203 7.2135,0.612 7.65,-3.6c5.292,1.2105 8.226,-2.853 13.5,-1.8c1.08,-3.402 6.849,-1.1385 9.9,-1.8c0.072,-3.294 6.7815,0.5985 6.75,-3.15c5.9895,0.9225 9.891,-2.4795 15.75,-2.25c0.396,-1.1925 -1.197,-0.5085 -1.35,-1.35M237.65001,193.05c-2.4525,-0.4905 -4.6575,-2.0295 -6.75,-3.15c-1.044,15.075 -0.153,30.636 -0.45,45.9c1.4805,-0.459 1.6965,1.0755 2.25,1.8c1.5435,0.072 4.707,-0.4005 4.5,1.8c1.764,-0.0225 3.9105,-0.468 4.05,1.8c1.4175,0.387 4.797,-1.035 4.5,1.35c1.4715,0.099 4.4865,-0.6615 4.05,1.8c1.656,0.2835 5.2785,-1.0035 4.95,1.8c1.539,-0.036 3.114,-0.081 4.5,0.45c1.0485,-14.76 0.153,-30.0375 0.45,-45c-2.061,0.702 -1.5345,-1.9485 -3.501,-1.449c-0.9405,-0.9675 -3.78,0.558 -3.249,-1.701c-1.728,0.1755 -3.348,-0.171 -4.95,-0.45c0.3915,-2.1915 -2.3445,-1.0935 -3.6,-1.35c-0.8595,-2.7495 -4.8465,-1.8135 -6.75,-3.6z" fill="#ffffff" fill-rule="nonzero" stroke="#000000" stroke-width="1"/><path d="M302.90001,65.7c-0.4005,1.1475 -0.6795,2.2275 -2.25,1.8c0.4005,-1.1475 0.6795,-2.2275 2.25,-1.8z" fill="#3f3f41" fill-rule="nonzero" stroke="#000000" stroke-width="1"/><path d="M270.05001,72.45c2.3985,0 4.8015,0 7.2,0c0.5895,-3.132 5.58,-1.3005 8.1,-1.8c0.4185,-2.7765 4.9185,-1.467 7.2,-1.8c-0.495,-1.9935 2.0205,-1.188 3.15,-1.35c-1.872,2.466 -5.4765,1.7415 -8.55,1.8c-0.252,2.8575 -4.6125,1.4535 -6.75,1.8c-0.765,3.033 -5.877,1.341 -8.55,1.8c0.4995,1.584 -1.2465,1.386 -2.25,1.35c0.4185,-0.513 0.486,-1.1475 0.45,-1.8z" fill="#3f3f41" fill-rule="nonzero" stroke="#000000" stroke-width="1"/><path d="M265.09999,74.25c-0.4005,1.1475 -0.6795,2.2275 -2.25,1.8c0.4005,-1.1475 0.6795,-2.2275 2.25,-1.8z" fill="#3f3f41" fill-rule="nonzero" stroke="#000000" stroke-width="1"/><path d="M256.55001,76.05c-0.4005,1.1475 -0.6795,2.2275 -2.25,1.8c0.2475,-1.2465 1.251,-1.3455 2.25,-1.8z" fill="#3f3f41" fill-rule="nonzero" stroke="#000000" stroke-width="1"/><path d="M275.2,207c-1.215,-0.063 -3.4965,-0.0225 -3.15,-1.8c-1.4085,0.0135 -4.041,0.4635 -3.6,-1.8c-3.033,1.053 -4.257,-1.7055 -6.75,-1.8c0,-26.2485 0,-52.5015 0,-78.75c1.1385,-5.121 -3.5505,-16.569 5.4,-14.4c0.1215,-2.682 4.4055,-0.774 6.3,-1.35c0.5895,-4.4955 8.604,0.918 9,-3.6c2.25,0 4.5,0 6.75,0c0.4635,-3.564 5.958,-1.044 8.55,-1.8c-0.009,-4.1895 7.002,0.576 7.2,-3.6c2.25,0 4.5,0 6.75,0c0.864,-2.655 5.859,-1.4265 8.55,-1.8c0.7605,-2.8755 5.9805,-0.648 8.55,-1.35c0.4185,-2.7765 4.9185,-1.467 7.2,-1.8c0.5895,-3.132 5.58,-1.3005 8.1,-1.8c0.5445,-3.5505 8.1405,0.9405 8.55,-3.15c1.8,0 3.6,0 5.4,0c1.1925,-3.132 5.4585,-1.314 8.1,-1.8c0.5175,-3.258 4.806,-1.2465 7.2,-1.8c0.09,-3.6225 5.967,-1.0035 8.55,-1.8c-0.243,-3.4515 4.986,-1.1205 7.2,-1.8c0.252,-2.8575 4.6125,-1.4535 6.75,-1.8c1.026,0.3915 1.4535,1.107 1.8,2.25c1.2555,0.2565 3.9915,-0.8415 3.6,1.35c1.6515,0 3.2985,0 4.95,0c-0.792,2.772 2.4435,1.215 3.699,2.151c1.521,0.657 2.682,2.0835 4.851,1.449c-0.4635,2.2545 2.205,1.8045 3.6,1.8c0,0.45 0,0.9 0,1.35c1.6155,0.891 5.553,-0.684 4.95,2.25c1.215,0.2475 4.0455,-0.7965 3.6,1.35c1.638,0.27 3.204,0.639 4.95,0.45c0.099,0.4275 -0.1755,1.233 0.45,1.35c1.0485,0 2.1015,0 3.15,0c0.441,0.738 1.881,0.4185 1.35,1.8c3.5685,-0.963 4.95,2.7585 8.55,1.8c2.0565,13.833 0.333,28.8855 0.9,43.2c-0.567,14.1795 1.1565,28.944 -0.9,42.75c-2.1015,0 -4.1985,0 -6.3,0c-0.9675,-0.1395 -2.241,0.036 -1.8,1.35c-2.151,0.288 -6.444,-0.8775 -6.75,1.8c-2.691,0.3735 -7.686,-0.855 -8.55,1.8c-4.4235,-1.2285 -6.804,2.1735 -10.8,1.8c-1.584,-0.2205 -3.2715,-0.0045 -3.6,1.8c-2.25,0 -4.5,0 -6.75,0c-0.18,2.7855 -4.266,1.485 -6.3,1.8c-1.0035,-0.036 -2.7495,-0.234 -2.25,1.35c-2.52,0.4995 -7.5105,-1.332 -8.1,1.8c-3.0195,-0.243 -6.0705,-0.081 -8.1,1.8c-2.5155,0.4275 -6.57,-1.2375 -7.65,1.8c-1.6515,0 -3.2985,0 -4.95,0c-1.962,-0.414 -1.917,1.665 -3.6,1.8c-1.8,0 -3.6,0 -5.4,0c-0.945,-0.207 -1.6695,0.3555 -1.35,1.35c-2.2905,-0.0405 -4.608,-0.0855 -6.75,0.45c0,0.45 0,0.9 0,1.35c0,0 -0.225,0.0225 -0.45,0c-0.99,0.198 -2.4975,-0.432 -3.15,0.45c0,0 -0.225,0 -0.45,0c-0.45,0 -0.9,0 -1.35,0c-0.225,0 -0.45,0 -0.45,0c-1.062,0.0675 -3.213,-0.459 -2.7,1.35c-2.4345,-0.0135 -4.923,-0.135 -7.2,0.45c0,0.45 0,0.9 0,1.35c-1.6515,0 -3.2985,0 -4.95,0c-0.5985,0 -1.2015,0 -1.8,0c0,6.8985 0,13.8015 0,20.7c0.2565,2.943 -3.645,1.431 -5.4,1.8c-0.945,-0.207 -1.6695,0.3555 -1.35,1.35c-1.728,0.2565 -4.0095,-0.5355 -5.4,0.45c-0.5985,0 -1.2015,0 -1.8,0c-0.945,-0.207 -1.6695,0.3555 -1.35,1.35c-0.216,-0.0405 -0.45,0 -0.45,0c-0.9675,0.1395 -2.241,-0.0405 -1.8,-1.35c-1.638,-0.27 -3.204,-0.639 -4.95,-0.45c0.09,-2.3355 -3.42,-1.1205 -4.95,-1.8c0.063,-1.9395 -2.376,-1.215 -3.6,-1.35c-0.54,-3.2085 -5.292,-0.2655 -5.4,-3.6c-1.215,-0.2475 -4.0455,0.7965 -3.6,-1.35c-0.945,0.3825 -2.0745,-1.1115 -2.7,0c-1.0395,3.492 -0.1575,7.8705 -0.45,11.7c-0.6345,2.925 2.0205,10.485 -3.15,8.55c0.4995,-1.584 -1.2465,-1.386 -2.25,-1.35c0,-12.6 0,-25.2 0,-37.8z" fill="#ffffff" fill-rule="nonzero" stroke="#000000" stroke-width="1"/><path d="M232.25001,82.8c0.252,-2.8575 4.6125,-1.4535 6.75,-1.8c-0.4995,-1.584 1.2465,-1.386 2.25,-1.35c-1.2015,2.6775 -5.103,1.5255 -7.65,1.8c-0.5895,3.132 -5.58,1.3005 -8.1,1.8c-0.0495,0.45 0.2115,1.2285 -0.45,1.35c0.1215,-3.357 4.986,-1.179 7.2,-1.8z" fill="#3f3f41" fill-rule="nonzero" stroke="#000000" stroke-width="1"/><path d="M218.75001,84.6c-0.4005,1.1475 -0.6795,2.2275 -2.25,1.8c0.4005,-1.1475 0.6795,-2.2275 2.25,-1.8z" fill="#3f3f41" fill-rule="nonzero" stroke="#000000" stroke-width="1"/><path d="M197.60001,94.5c-1.719,-4.8915 2.6235,-4.167 4.05,-6.75c2.25,0 4.5,0 6.75,0c-0.495,-1.9935 2.0205,-1.188 3.15,-1.35c-0.7425,2.3625 -3.807,1.6965 -5.85,1.8c-2.8035,-0.8595 -3.5415,2.3715 -6.3,1.8c0,34.9515 0,69.8985 0,104.85c0,1.6515 0,3.2985 0,4.95c-0.45,0 -0.9,0 -1.35,0c-1.0125,-34.884 -0.1755,-70.2315 -0.45,-105.3z" fill="#3f3f41" fill-rule="nonzero" stroke="#000000" stroke-width="1"/><path d="M429.80001,93.6c-1.746,0.189 -3.312,-0.18 -4.95,-0.45c0.4455,-2.1465 -2.385,-1.1025 -3.6,-1.35c0.603,-2.934 -3.3345,-1.359 -4.95,-2.25c0,-0.45 0,-0.9 0,-1.35c1.566,0.531 2.5515,2.0295 4.95,1.35c0.171,2.646 3.0465,1.6155 4.95,1.8c-0.2205,3.132 4.5135,0.414 4.05,3.6c-0.6255,-0.117 -0.351,-0.9225 -0.45,-1.35z" fill="#3f3f41" fill-rule="nonzero" stroke="#000000" stroke-width="1"/><path d="M444.20001,141.75c-0.567,-14.3145 1.1565,-29.367 -0.9,-43.2c-3.6,0.9585 -4.9815,-2.763 -8.55,-1.8c0.531,-1.3815 -0.909,-1.062 -1.35,-1.8c1.026,-0.207 2.142,0.0495 1.8,1.35c1.6515,0 3.2985,0 4.95,0c0.2025,1.7685 1.485,2.0565 3.15,1.8c0.3195,1.3365 0.9045,1.9125 2.25,2.25c0,28.0485 0,56.1015 0,84.15c-0.7515,0 -1.4985,0 -2.25,0c2.0565,-13.806 0.333,-28.5705 0.9,-42.75z" fill="#3f3f41" fill-rule="nonzero" stroke="#000000" stroke-width="1"/><path d="M419.90001,189.45c0.864,-2.655 5.859,-1.4265 8.55,-1.8c0.306,-2.6775 4.599,-1.512 6.75,-1.8c-0.441,-1.314 0.8325,-1.4895 1.8,-1.35c0.009,4.1895 -7.002,-0.576 -7.2,3.6c-2.25,0 -4.5,0 -6.75,0c-0.7065,3.2085 -5.8995,1.2555 -8.55,1.8c0.099,2.223 -3.312,1.6425 -4.95,1.8c0,12.4515 0,24.8985 0,37.35c1.431,5.0805 -3.141,6.1245 -7.2,5.4c0.207,2.2005 -2.9565,1.728 -4.5,1.8c-2.52,-0.585 -3.735,0.585 -5.4,1.35c-1.0305,-13.428 -0.162,-27.333 -0.45,-40.95c-2.8485,0 -5.7015,0 -8.55,0c-0.252,2.8575 -4.6125,1.4535 -6.75,1.8c-0.765,3.033 -5.877,1.341 -8.55,1.8c0.441,1.314 -0.8325,1.4895 -1.8,1.35c1.08,-3.0375 5.1345,-1.3725 7.65,-1.8c2.0295,-1.881 5.0805,-2.043 8.1,-1.8c0.5895,-3.132 5.58,-1.3005 8.1,-1.8c-0.4995,-1.584 1.2465,-1.386 2.25,-1.35c0,13.6485 0,27.3015 0,40.95c2.25,0 4.5,0 6.75,0c-0.0945,-2.3985 3.276,-1.656 4.95,-1.8c2.3985,0.6795 3.384,-0.819 4.95,-1.35c0,-13.8015 0,-27.5985 0,-41.4c3.996,0.3735 6.3765,-3.0285 10.8,-1.8z" fill="#3f3f41" fill-rule="nonzero" stroke="#000000" stroke-width="1"/><path d="M248.00001,198c1.602,0.279 3.222,0.6255 4.95,0.45c-0.531,2.259 2.3085,0.7335 3.249,1.701c1.9665,-0.4995 1.44,2.151 3.501,1.449c-0.297,14.9625 0.5985,30.24 -0.45,45c-1.386,-0.531 -2.961,-0.486 -4.5,-0.45c0.3285,-2.8035 -3.294,-1.5165 -4.95,-1.8c0.4365,-2.4615 -2.5785,-1.701 -4.05,-1.8c0.297,-2.385 -3.0825,-0.963 -4.5,-1.35c-0.1395,-2.268 -2.286,-1.8225 -4.05,-1.8c0.207,-2.2005 -2.9565,-1.728 -4.5,-1.8c-0.5535,-0.7245 -0.7695,-2.259 -2.25,-1.8c0.297,-15.264 -0.594,-30.825 0.45,-45.9c2.0925,1.1205 4.2975,2.6595 6.75,3.15c1.9035,1.7865 5.8905,0.8505 6.75,3.6c1.2555,0.2565 3.9915,-0.8415 3.6,1.35z" fill="#ffffff" fill-rule="nonzero" stroke="#000000" stroke-width="1"/><path d="M398.75001,193.05c2.25,0 4.5,0 6.75,0c0.3285,-1.8045 2.016,-2.0205 3.6,-1.8c0,13.8015 0,27.5985 0,41.4c-1.566,0.531 -2.5515,2.0295 -4.95,1.35c-1.674,0.144 -5.0445,-0.5985 -4.95,1.8c-2.25,0 -4.5,0 -6.75,0c0,-13.6485 0,-27.3015 0,-40.95c2.034,-0.315 6.12,0.9855 6.3,-1.8z" fill="#ffffff" fill-rule="nonzero" stroke="#000000" stroke-width="1"/><path d="M199.40001,199.8c0,-1.6515 0,-3.2985 0,-4.95c1.5525,-0.486 1.8315,0.675 2.25,1.8c1.4985,0 3.0015,0 4.5,0c0.3375,2.583 3.8025,1.9575 5.4,3.15c0,6.8985 0,13.8015 0,20.7c0.8235,-0.1035 1.5615,0.0315 2.25,0.45c-0.288,0.9135 0.7605,0.927 1.35,0.9c0,3.0015 0,5.9985 0,9c1.2555,0.2565 3.9915,-0.8415 3.6,1.35c1.818,0.684 4.716,-0.387 4.95,2.25c3.2085,-0.927 3.7755,1.944 6.75,1.8c0,7.9515 0,15.8985 0,23.85c3.411,-0.693 4.887,2.9025 8.55,1.8c-0.7335,2.475 2.133,1.701 3.6,1.8c-0.207,2.4795 3.42,0.9045 4.95,1.35c0.171,2.646 3.0465,1.6155 4.95,1.8c0.1395,2.268 2.286,1.8225 4.05,1.8c-0.207,2.2005 2.9565,1.728 4.5,1.8c-0.4635,2.2545 2.205,1.8045 3.6,1.8c0,3.2985 0,6.6015 0,9.9c-2.601,0.9225 -2.826,-1.4895 -4.95,-1.35c0,0.5985 0,1.2015 0,1.8c-0.8865,3.132 1.962,9.369 -1.8,10.35c-1.2195,-0.9315 -3.6,0.1665 -3.6,-2.25c-1.1295,-0.162 -3.645,0.6435 -3.15,-1.35c-1.656,-0.1215 -5.076,0.5535 -4.95,-1.8c-1.989,0.3285 -3.7395,-0.153 -4.9185,-1.3815c-1.566,-0.81 -3.9825,0.2655 -4.0815,-2.2185c-1.215,-0.2475 -4.0455,0.7965 -3.6,-1.35c-1.638,-0.27 -3.204,-0.639 -4.95,-0.45c0.342,-1.3005 -0.7785,-1.557 -1.8,-1.35c-1.4535,0.0225 -3.7935,0.477 -3.15,-1.8c-1.647,-0.054 -3.852,0.3105 -4.9005,-0.9495c-0.6345,-1.89 -4.131,0.387 -3.6495,-2.2005c-1.746,0.189 -3.312,-0.18 -4.95,-0.45c0.4455,-2.1465 -2.385,-1.1025 -3.6,-1.35c-0.3465,-3.2985 -6.219,-0.54 -5.3955,-4.9545c-0.009,-3.6 -0.0045,-7.1955 -0.0045,-10.7955c-1.026,0.207 -2.142,-0.0495 -1.8,-1.35c0,-3.4515 0,-6.8985 0,-10.35c-1.638,-0.27 -3.204,-0.639 -4.95,-0.45c-0.099,-0.4275 0.1755,-1.233 -0.45,-1.35c-0.9,0 -1.8,0 -2.7,0c-0.4185,-1.125 -0.6975,-2.286 -2.25,-1.8c-0.45,0 -0.9,0 -1.35,0c-1.0485,-15.21 -0.153,-30.9375 -0.45,-46.35c1.5705,-0.4275 1.8495,0.6525 2.25,1.8c1.4985,0 3.0015,0 4.5,0c0.099,0.4275 -0.1755,1.233 0.45,1.35c1.2015,0 2.3985,0 3.6,0c0.45,0 0.9,0 1.35,0z" fill="#ffffff" fill-rule="nonzero" stroke="#000000" stroke-width="1"/><path d="M185.90001,242.55c0,-15.3 0,-30.6 0,-45.9c1.341,-0.252 4.0005,-1.143 3.6,1.35c1.6695,0.288 5.2605,-1.0215 4.95,1.8c-0.6255,-0.117 -0.351,-0.9225 -0.45,-1.35c-1.4985,0 -3.0015,0 -4.5,0c-0.4005,-1.1475 -0.6795,-2.2275 -2.25,-1.8c0.297,15.4125 -0.5985,31.14 0.45,46.35c-0.513,-0.4185 -1.1475,-0.486 -1.8,-0.45z" fill="#3f3f41" fill-rule="nonzero" stroke="#000000" stroke-width="1"/><path d="M361.40001,201.6c-0.585,0.576 -0.351,1.1925 0,1.8c-1.2015,0 -2.3985,0 -3.6,0c1.683,-0.135 1.638,-2.214 3.6,-1.8z" fill="#3f3f41" fill-rule="nonzero" stroke="#000000" stroke-width="1"/><path d="M344.30001,205.2c2.142,-0.5355 4.4595,-0.4905 6.75,-0.45c-0.3195,-0.9945 0.405,-1.557 1.35,-1.35c0,0.45 0,0.9 0,1.35c-2.1645,0.531 -4.4415,0.495 -6.75,0.45c0.207,0.945 -0.3555,1.6695 -1.35,1.35c0,-0.45 0,-0.9 0,-1.35z" fill="#3f3f41" fill-rule="nonzero" stroke="#000000" stroke-width="1"/><path d="M345.65001,205.2c2.3085,0.045 4.5855,0.081 6.75,-0.45c0,-0.45 0,-0.9 0,-1.35c1.8,0 3.6,0 5.4,0c0,13.8015 0,27.5985 0,41.4c-2.664,1.584 -6.453,2.223 -10.35,1.8c-0.369,2.7765 -5.04,0.7155 -7.2,1.35c0,-13.6485 0,-27.3015 0,-40.95c0.225,0 0.45,0 0.45,0c0.99,-0.198 2.4975,0.432 3.15,-0.45c0.225,0.0225 0.45,0 0.45,0c0.9945,0.3195 1.557,-0.405 1.35,-1.35z" fill="#ffffff" fill-rule="nonzero" stroke="#000000" stroke-width="1"/><path d="M343.85001,206.55c-0.6525,0.882 -2.16,0.252 -3.15,0.45c0.6525,-0.882 2.16,-0.252 3.15,-0.45z" fill="#3f3f41" fill-rule="nonzero" stroke="#000000" stroke-width="1"/><path d="M328.55001,208.8c2.277,-0.585 4.7655,-0.4635 7.2,-0.45c-0.513,-1.809 1.638,-1.2825 2.7,-1.35c0,0.45 0,0.9 0,1.35c-2.5605,0.6615 -5.3775,0.414 -8.1,0.45c0.441,1.3095 -0.8325,1.4895 -1.8,1.35c0,-0.45 0,-0.9 0,-1.35z" fill="#3f3f41" fill-rule="nonzero" stroke="#000000" stroke-width="1"/><path d="M338.90001,247.95c0,-13.6485 0,-27.3015 0,-40.95c0.45,0 0.9,0 1.35,0c0,13.6485 0,27.3015 0,40.95c-0.45,0 -0.9,0 -1.35,0z" fill="#3f3f41" fill-rule="nonzero" stroke="#000000" stroke-width="1"/><path d="M321.80001,210.15c0.5985,0 1.2015,0 1.8,0c-1.044,6.6735 -0.1575,13.8375 -0.45,20.7c-0.45,0 -0.9,0 -1.35,0c0,-6.8985 0,-13.8015 0,-20.7z" fill="#3f3f41" fill-rule="nonzero" stroke="#000000" stroke-width="1"/><path d="M281.75001,225.9c-0.4455,2.1465 2.385,1.1025 3.6,1.35c0.108,3.3345 4.86,0.3915 5.4,3.6c-1.026,0.207 -2.142,-0.0495 -1.8,-1.35c-1.4085,0.0135 -4.041,0.4635 -3.6,-1.8c-1.746,0.189 -3.312,-0.18 -4.95,-0.45c0.3195,-0.9945 -0.405,-1.557 -1.35,-1.35c0.6255,-1.1115 1.755,0.3825 2.7,0z" fill="#3f3f41" fill-rule="nonzero" stroke="#000000" stroke-width="1"/><path d="M302.90001,236.25c-0.216,-2.8035 -3.4155,-1.5255 -5.4,-1.8c0.729,-2.583 -3.2535,-0.18 -3.15,-2.25c1.53,0.6795 5.04,-0.5355 4.95,1.8c1.746,-0.189 3.312,0.18 4.95,0.45c-0.441,1.3095 0.8325,1.4895 1.8,1.35c-0.6525,0.882 -2.16,0.252 -3.15,0.45z" fill="#3f3f41" fill-rule="nonzero" stroke="#000000" stroke-width="1"/><path d="M315.05001,234c-0.3195,-0.9945 0.405,-1.557 1.35,-1.35c0,0.45 0,0.9 0,1.35c-2.142,0.5355 -4.4595,0.4905 -6.75,0.45c1.3905,-0.9855 3.672,-0.1935 5.4,-0.45z" fill="#3f3f41" fill-rule="nonzero" stroke="#000000" stroke-width="1"/><path d="M307.84999,234.45c0.3195,0.9945 -0.405,1.557 -1.35,1.35c-0.3195,-0.9945 0.405,-1.557 1.35,-1.35z" fill="#3f3f41" fill-rule="nonzero" stroke="#000000" stroke-width="1"/><path d="M189.05001,243c1.5525,-0.486 1.8315,0.675 2.25,1.8c-1.116,-0.0135 -1.926,-0.7605 -2.25,-1.8z" fill="#3f3f41" fill-rule="nonzero" stroke="#000000" stroke-width="1"/><path d="M198.05001,246.6c-1.485,-0.0945 -4.464,0.675 -4.05,-1.8c0.6255,0.117 0.351,0.9225 0.45,1.35c1.746,-0.189 3.312,0.18 4.95,0.45c0,3.4515 0,6.8985 0,10.35c-2.9025,-1.9575 -0.63,-7.092 -1.35,-10.35z" fill="#3f3f41" fill-rule="nonzero" stroke="#000000" stroke-width="1"/><path d="M254.30001,291.15c-3.267,0.126 -7.497,-0.27 -8.55,-3.15c-1.773,0.306 -3.2445,-0.4635 -4.95,-0.45c0.4455,-2.1465 -2.385,-1.1025 -3.6,-1.35c0.909,-3.5865 -5.31,-0.225 -4.95,-3.6c-1.935,-0.054 -4.725,0.4365 -5.4,-1.8c1.0215,-0.207 2.142,0.0495 1.8,1.35c1.746,-0.189 3.312,0.18 4.95,0.45c-0.4455,2.1465 2.385,1.1025 3.6,1.35c0.099,2.484 2.5155,1.4085 4.0815,2.2185c1.179,1.2285 2.9295,1.71 4.9185,1.3815c-0.126,2.3535 3.294,1.6785 4.95,1.8c-0.495,1.9935 2.0205,1.188 3.15,1.35c0,2.4165 2.3805,1.3185 3.6,2.25c-1.4085,0.0135 -4.041,0.4635 -3.6,-1.8z" fill="#3f3f41" fill-rule="nonzero" stroke="#000000" stroke-width="1"/><path d="M257.19985,1.0924c25.12662,3.70137 47.9771,16.61773 64.10703,36.23609c16.12993,19.61822 24.38485,44.53543 23.15735,69.9036c-0.45592,9.4532 -2.21826,18.71717 -5.17741,27.55005l113.33764,113.33763c17.12069,17.12069 17.12069,44.87679 0,61.99748l-2.50761,2.50761c-17.12069,17.12069 -44.87678,17.12069 -61.99748,0l-113.33763,-113.33764c-8.79065,2.94454 -18.008,4.7025 -27.41474,5.17011c-25.36642,1.25965 -50.29444,-6.96168 -69.93399,-23.0653c-19.63955,-16.10362 -32.58602,-38.93803 -36.3204,-64.05938c-3.01395,-20.27507 0.1465,-40.86988 8.89369,-59.16473c4.7529,-9.9404 17.13998,-7.84796 23.71587,-1.27222l62.73237,62.73252l23.17329,-23.17329l-62.73252,-62.73237c-6.5753,-6.57545 -8.90887,-18.83204 1.1518,-23.65859c18.28316,-8.77127 38.87388,-11.95883 59.15275,-8.97157zM431.95863,268.7856c5.70641,5.70641 5.70641,14.95941 0,20.66582l-2.5076,2.50761c-5.70641,5.70641 -14.95942,5.70641 -20.66583,0l-106.68284,-106.68283l0.03215,-0.02338l-21.67997,-21.67998c-10.34402,6.44145 -22.23133,10.2087 -34.5807,10.82245c-17.90234,0.88847 -35.49534,-4.91292 -49.35585,-16.27898c-13.86066,-11.3646 -22.99764,-27.4799 -25.6331,-45.20938c-0.88935,-5.98216 -1.01693,-12.00378 -0.41326,-17.92968l45.31694,45.31693c11.41355,11.41282 29.91854,11.41282 41.33194,0l23.17329,-23.17328c11.41282,-11.4134 11.41429,-29.91839 0,-41.33194l-45.31767,-45.31767c5.89522,-0.60074 11.88526,-0.47771 17.83717,0.39908c17.73313,2.61224 33.86057,11.72802 45.24416,25.57364c11.3836,13.84561 17.20837,31.43085 16.34328,49.33437c-0.59913,12.36939 -4.36055,24.27935 -10.80638,34.64295z" fill="none" fill-rule="evenodd" stroke="#0085ff" stroke-width="5"/></g></g></svg>