<svg version="1.1" xmlns="http://www.w3.org/2000/svg" xmlns:xlink="http://www.w3.org/1999/xlink" width="258.55978" height="258.79085" viewBox="0,0,258.55978,258.79085"><g transform="translate(-190.72011,-50.60457)"><g data-paper-data="{&quot;isPaintingLayer&quot;:true}" fill-rule="nonzero" stroke="none" stroke-linecap="butt" stroke-linejoin="miter" stroke-miterlimit="10" stroke-dasharray="" stroke-dashoffset="0" style="mix-blend-mode: normal"><path d="M448.5867,165.21195c0,0.92425 -0.92425,1.8485 -1.8485,2.77276l-36.97012,36.97012c-1.8485,1.8485 -4.62127,2.77276 -6.46977,2.77276c-1.8485,0 -4.62127,-0.92426 -6.46977,-2.77276c-3.69702,-3.69701 -3.69702,-9.24252 0,-12.93954l21.25782,-21.25782h-51.75818v92.4253c0,5.54552 -3.69701,9.24253 -9.24253,9.24253h-64.69771v27.72759c0,2.77276 -1.8485,5.54552 -4.62126,7.39402c-0.92426,0.92426 -2.77276,1.8485 -4.62126,1.8485c-0.92426,0 -2.77276,0 -3.69701,-0.92426l-83.18277,-36.97012c-3.69701,-0.92426 -5.54551,-4.62126 -5.54551,-8.31828v-203.33567c0,-0.92426 0,-1.8485 0.92425,-2.77276c0,-0.92426 0,-0.92425 0,-0.92425c0,-0.92426 0.92425,-1.8485 1.8485,-2.77276l0.92426,-0.92426c0,-0.92426 0.92425,-0.92425 0.92425,-0.92425c0.92425,0 0.92425,0 0.92425,0c0.92425,-0.92426 2.77276,-0.92426 3.69701,-0.92426h157.12301c5.54552,0 9.24253,3.69702 9.24253,9.24253v64.69772v27.72759h51.75818l-21.25782,-21.25782c-3.69702,-3.69701 -3.69702,-9.24252 0,-12.93954c3.69702,-3.69701 9.24253,-3.69701 12.93955,0l36.97012,36.97012c0.92426,0.92425 0.92425,1.8485 1.8485,2.77275c0.92426,2.77276 0.92426,4.62127 0,7.39403zM347.84312,69.08964h-104.44059l43.43989,19.40931c3.69702,0.92426 5.54552,4.62126 5.54552,8.31828v157.12302h55.45518v-129.39542z" fill="#ffffff" stroke-width="1"/><path d="M347.87934,124.51918l-0.01439,129.4597l-55.47856,0.00572l-0.00067,-157.21169c0,-3.69701 -1.84099,-7.30565 -5.538,-8.22991l-43.46702,-19.492h104.48425z" data-paper-data="{&quot;noHover&quot;:false,&quot;origItem&quot;:[&quot;Path&quot;,{&quot;applyMatrix&quot;:true,&quot;segments&quot;:[[702.74426,110.06435],[467.38819,110.06435],[[565.27965,153.80309],[0,0],[8.33119,2.0828]],[[577.77644,172.54826],[0,-8.33119],[0,0]],[577.77644,526.62377],[702.74426,526.62377],[702.74426,235.03218]],&quot;closed&quot;:true,&quot;fillColor&quot;:[0,0,0,1]}]}" fill="#000000" stroke-width="0.5"/></g></g></svg>