<svg version="1.1" xmlns="http://www.w3.org/2000/svg" xmlns:xlink="http://www.w3.org/1999/xlink" width="359.99901" height="360" viewBox="0,0,359.99901,360"><g transform="translate(-140.0005,0)"><g data-paper-data="{&quot;isPaintingLayer&quot;:true}" fill="#0f0f0f" fill-rule="evenodd" stroke="none" stroke-width="1" stroke-linecap="butt" stroke-linejoin="miter" stroke-miterlimit="10" stroke-dasharray="" stroke-dashoffset="0" style="mix-blend-mode: normal"><path d="M269.6357,1.20831c27.79276,4.09411 53.06788,18.381 70.90932,40.08104c17.84145,21.69987 26.9723,49.26101 25.61455,77.32096c-0.50431,10.45627 -2.45364,20.70322 -5.72678,30.47334l125.36372,125.36372c18.93734,18.93734 18.93734,49.63859 0,68.57594l-2.77368,2.77368c-18.93734,18.93734 -49.63859,18.93734 -68.57594,0l-125.36372,-125.36372c-9.72341,3.25698 -19.9188,5.20147 -30.32367,5.7187c-28.05801,1.39331 -55.63111,-7.70037 -77.35458,-25.51272c-21.72347,-17.81235 -36.04366,-43.06968 -40.1743,-70.85663c-3.33375,-22.42643 0.16204,-45.20652 9.83738,-65.44261c5.25723,-10.99517 18.95868,-8.68069 26.23232,-1.40721l69.38881,69.38897l25.63217,-25.63217l-69.38897,-69.38881c-7.273,-7.27316 -9.85417,-20.83027 1.27402,-26.16896c20.22316,-9.70198 42.99872,-13.22777 65.42936,-9.92353zM462.93785,297.30602c6.31191,6.31191 6.31191,16.54674 0,22.85865l-2.77368,2.77368c-6.31191,6.31191 -16.54674,6.31191 -22.85865,0l-118.00279,-118.00279l0.03556,-0.02586l-23.9804,-23.9804c-11.44161,7.12494 -24.59026,11.29193 -38.25,11.97081c-19.80194,0.98275 -39.26169,-5.43422 -54.59292,-18.00632c-15.33139,-12.57048 -25.43788,-30.39576 -28.353,-50.00648c-0.98372,-6.61692 -1.12483,-13.27748 -0.45711,-19.83216l50.12544,50.12544c12.62463,12.62382 33.09315,12.62382 45.71761,0l25.63217,-25.63217c12.62382,-12.62446 12.62543,-33.09299 0,-45.71761l-50.12625,-50.12625c6.52074,-0.66449 13.14639,-0.52839 19.72985,0.44143c19.61476,2.88942 37.45346,12.97247 50.04495,28.28721c12.59149,15.31474 19.03432,34.76593 18.07744,54.56916c-0.66271,13.68189 -4.82324,26.85559 -11.95303,38.31886z"/></g></g></svg>