<svg version="1.1" xmlns="http://www.w3.org/2000/svg" xmlns:xlink="http://www.w3.org/1999/xlink" width="342.0004" height="359.99999" viewBox="0,0,342.0004,359.99999"><g transform="translate(-148.99978,-0.00001)"><g data-paper-data="{&quot;isPaintingLayer&quot;:true}" stroke="none" stroke-linecap="butt" stroke-linejoin="miter" stroke-miterlimit="10" stroke-dasharray="" stroke-dashoffset="0" style="mix-blend-mode: normal"><path d="M220.99998,180.00001c0,-54.67619 44.32381,-99 99,-99c54.67619,0 99,44.32381 99,99c0,54.67619 -44.32381,99 -99,99c-54.67619,0 -99,-44.32381 -99,-99z" fill="#000000" fill-rule="nonzero" stroke-width="0"/><path d="M371.64899,22.22334c1.68119,4.0266 2.3382,8.7093 2.5956,15.53958c0.3798,10.03896 5.5674,19.33146 14.33339,24.35437c8.76601,5.02307 19.46879,4.83534 28.4184,0.14112c6.08759,-3.19392 10.50301,-4.96998 14.8572,-5.53879c9.53819,-1.24631 19.1844,1.31885 26.8164,7.13123c5.72579,4.35923 9.9504,11.62261 18.4014,26.14914c8.45101,14.52653 12.6756,21.7899 13.6188,28.88946c1.2546,9.46619 -1.3302,19.03968 -7.1856,26.61354c-2.6748,3.45959 -6.4314,6.3648 -12.2652,10.0026c-8.56981,5.34419 -14.085,14.4468 -14.085,24.4926c0,10.0458 5.51519,19.15201 14.085,24.4962c5.832,3.636 9.5886,6.54301 12.2634,10.0008c5.8554,7.5744 8.4402,17.1486 7.1856,26.61479c-0.9432,7.09919 -5.16781,14.3622 -13.6188,28.88821c-8.45101,14.52779 -12.6756,21.7908 -18.4014,26.15039c-7.63201,5.8122 -17.2782,8.37721 -26.8164,7.1298c-4.35421,-0.56879 -8.7678,-2.34361 -14.8572,-5.5368c-8.9496,-4.69439 -19.6524,-4.88339 -28.41839,0.1404c-8.76601,5.02379 -13.9518,14.3154 -14.32981,24.354c-0.25739,6.83101 -0.9162,11.51461 -2.5974,15.54121c-3.681,8.82 -10.74241,15.82919 -19.63081,19.4832c-6.66541,2.73961 -15.1164,2.73961 -32.0184,2.73961c-16.902,0 -25.35299,0 -32.0184,-2.73961c-8.8884,-3.65399 -15.94998,-10.6632 -19.63152,-19.4832c-1.68065,-4.0266 -2.33838,-8.7102 -2.59579,-15.53941c-0.37836,-10.04041 -5.56579,-19.332 -14.33215,-24.3558c-8.76636,-5.02201 -19.46879,-4.83481 -28.41822,-0.1404c-6.08904,3.19319 -10.50391,4.96981 -14.85793,5.5386c-9.53821,1.24559 -19.18457,-1.3194 -26.81693,-7.1316c-5.72436,-4.3578 -9.94987,-11.6226 -18.40069,-26.14859c-8.45064,-14.52601 -12.67614,-21.7908 -13.6179,-28.89001c-1.25568,-9.46619 1.32894,-19.0386 7.1856,-26.61299c2.67337,-3.45779 6.43087,-6.3648 12.2625,-10.0026c8.57087,-5.34419 14.08609,-14.4486 14.08663,-24.4944c0.00054,-10.0458 -5.51485,-19.15201 -14.08663,-24.498c-5.83074,-3.636 -9.58753,-6.54121 -12.2607,-9.999c-5.85666,-7.57512 -8.44146,-17.1486 -7.1856,-26.61462c0.94175,-7.09973 5.16709,-14.36291 13.6179,-28.88964c8.45082,-14.52653 12.67631,-21.7899 18.40067,-26.14913c7.63236,-5.81238 17.27874,-8.37756 26.81695,-7.13125c4.35421,0.56881 8.76941,2.34504 14.859,5.53933c8.9487,4.69405 19.65043,4.88159 28.41625,-0.14094c8.76582,-5.02272 13.95305,-14.3145 14.33124,-24.35292c0.25739,-6.83083 0.91512,-11.5137 2.59579,-15.54047c3.68154,-8.82089 10.74311,-15.82921 19.63152,-19.48303c6.66541,-2.74031 15.1164,-2.74031 32.0184,-2.74031c16.902,0 25.35299,0 32.0184,2.74031c8.8884,3.65382 15.94981,10.66212 19.63081,19.48303zM265.58867,180c0,-29.8242 24.36012,-54 54.41111,-54c30.05101,0 54.4104,24.1758 54.4104,54c0,29.8242 -24.35939,54 -54.4104,54c-30.05101,0 -54.41111,-24.1758 -54.41111,-54z" fill="#ffffff" fill-rule="evenodd" stroke-width="1"/></g></g></svg>