<svg version="1.1" xmlns="http://www.w3.org/2000/svg" xmlns:xlink="http://www.w3.org/1999/xlink" width="360" height="360" viewBox="0,0,360,360"><g transform="translate(-140,0)"><g data-paper-data="{&quot;isPaintingLayer&quot;:true}" fill="none" fill-rule="nonzero" stroke-miterlimit="10" stroke-dasharray="" stroke-dashoffset="0" style="mix-blend-mode: normal"><path d="M320.05723,131.5015v59.90991" stroke="#ff0000" stroke-width="24" stroke-linecap="round" stroke-linejoin="round"/><path d="M423.67284,140.97332v78.05371c0,12.78078 -6.84685,24.64865 -17.91592,31.15315l-67.78378,39.14114c-11.06907,6.39039 -24.76276,6.39039 -35.94595,0l-67.78401,-39.14114c-11.06907,-6.39039 -17.91603,-18.25826 -17.91603,-31.15315v-78.05371c0,-12.78078 6.84696,-24.64911 17.91603,-31.15361l67.78401,-39.14103c11.06907,-6.39039 24.76276,-6.39039 35.94595,0l67.78378,39.14103c11.06907,6.5045 17.91592,18.25872 17.91592,31.15361z" stroke="#ff0000" stroke-width="24" stroke-linecap="round" stroke-linejoin="round"/><path d="M320.05723,227.92793v1.14" stroke="#ff0000" stroke-width="24" stroke-linecap="round" stroke-linejoin="round"/><path d="M140,360v-360h360v360z" stroke="#000000" stroke-width="0" stroke-linecap="butt" stroke-linejoin="miter"/></g></g></svg>