<svg version="1.1" xmlns="http://www.w3.org/2000/svg" xmlns:xlink="http://www.w3.org/1999/xlink" width="419.72717" height="247.14984" viewBox="0,0,419.72717,247.14984"><g transform="translate(-114.73239,-55.03748)"><g data-paper-data="{&quot;isPaintingLayer&quot;:true}" fill-rule="nonzero" stroke="none" stroke-width="0" stroke-linecap="butt" stroke-linejoin="miter" stroke-miterlimit="10" stroke-dasharray="" stroke-dashoffset="0" style="mix-blend-mode: normal"><path d="M125.58532,281.29856l-7.61983,-52.61903l49.45899,-4.87816c0,0 -3.21059,-21.72419 -2.13598,-42.64231c0.73096,-14.22873 1.33508,-47.76127 12.58817,-68.28595c15.5954,-28.44463 41.54524,-44.27899 42.35353,-44.36902c0.98453,-0.10966 39.33356,-12.20093 44.49818,-9.91752c0.79375,0.35095 37.80714,-9.61741 63.50122,2.39681c3.65114,1.70722 27.23636,12.97422 35.11114,25.85672c4.32456,7.07466 13.46398,23.35898 17.14148,32.97068c3.54898,9.27581 -45.20616,11.36669 -46.6807,8.1603c-4.29897,-9.34804 -21.01715,-34.40712 -24.92721,-38.00248c-13.58394,-12.49062 -32.38275,-27.28971 -43.96902,-24.32838c-8.81464,2.25295 -23.57996,15.20661 -28.66224,20.43887c-19.97923,23.38062 -24.19886,50.93888 -27.45603,69.9982c-5.42515,31.7454 6.086,62.55259 6.086,62.55259l51.88726,-6.77633l6.17758,43.725l-42.15266,7.35765l-4.60925,5.98305l-44.47305,9.3994l-3.29841,-6.23951l-41.71424,7.28112c0,0 0.00414,4.46849 -5.05228,5.46026c-4.81018,0.94349 -6.05262,-3.52193 -6.05262,-3.52193z" fill="#b4b4b4"/><path d="M459.9533,136.7117c2.03217,12.532 35.97592,125.7232 -5.41058,141.63294c-14.51569,5.58008 -74.23346,11.85181 -106.23412,17.04097c-22.71871,3.68403 -67.40518,10.88216 -95.07922,3.80566c-21.74453,-5.56025 -34.10079,-21.20525 -40.98117,-30.28296c-2.2534,-2.97303 -5.34955,-8.43905 -7.59066,-13.86432c-3.60027,-8.71551 -4.98865,-16.53476 -4.95244,-30.07872c0.05788,-21.65151 2.67273,-43.76094 3.8115,-48.49579c6.28316,-26.12452 43.09006,-53.99613 122.34122,-64.5654c21.50515,-2.86803 48.80777,-7.19727 67.07841,-6.47593c41.44612,1.63631 64.41875,15.26042 67.01704,31.28355z" fill="#212121"/><path d="M487.15208,166.53074c5.95405,36.71751 -45.26602,112.9958 -120.05184,125.12295c-21.51315,3.48854 -50.50711,1.52671 -70.90677,-0.28268c-18.90406,-1.67673 -32.26092,-6.1642 -43.05716,-15.01444c-23.67172,-12.53883 -37.52769,-42.20515 -40.02872,-57.62849c-3.20507,-19.76505 9.82957,-44.93742 35.56816,-62.70805c22.07596,-15.24184 53.88518,-24.13621 88.41376,-29.73533c28.95329,-4.69503 92.24007,-12.20438 116.01341,-10.54265c37.25348,2.60401 30.40022,28.28632 34.04916,50.78867z" fill="#bebebe"/><path d="M534.04398,189.73361c2.74326,16.91725 -8.3175,52.85037 -26.59249,65.96946c-21.78731,15.6405 -52.41598,19.8657 -85.94136,25.30212c-18.50027,2.99997 -52.44718,10.8749 -77.12361,9.51771c-14.31534,-0.78731 -21.90651,-8.5969 -30.93424,-12.07605c-25.41691,-9.79527 -26.20468,-37.35218 -29.36672,-56.85189c-2.524,-15.56503 -5.23895,-45.80352 7.6886,-59.58698c7.39038,-7.8797 14.80407,-15.9163 30.45982,-22.56586c22.20886,-9.43286 54.93211,-16.47599 75.39508,-19.77953c32.4158,-5.23324 77.59246,-13.08998 100.05809,-1.17383c24.09479,12.78028 33.24474,52.05308 36.35685,71.24487z" fill="#e9e9e9"/><path d="M123.25365,272.54867l-8.52126,-49.73448l124.73295,-52.63058c0,0 18.61061,-3.7112 20.95985,17.58682c2.74081,24.84828 -15.4193,36.28218 -15.4193,36.28218z" fill="#b4b4b4"/></g></g></svg>