<svg version="1.1" xmlns="http://www.w3.org/2000/svg" xmlns:xlink="http://www.w3.org/1999/xlink" width="396.63168" height="436.72342" viewBox="0,0,396.63168,436.72342"><g transform="translate(-121.82269,37.67108)"><g data-paper-data="{&quot;isPaintingLayer&quot;:true}" fill-rule="nonzero" stroke="none" stroke-width="1" stroke-linecap="butt" stroke-linejoin="miter" stroke-miterlimit="10" stroke-dasharray="" stroke-dashoffset="0" style="mix-blend-mode: normal"><path d="M516.83388,57.60106c-0.22575,0.95945 -0.39507,1.91891 -0.67727,2.87835c-0.84657,3.5556 -2.59616,11.9649 -4.34574,28.38843c0,0.2822 0,0.50795 -0.05645,0.67727c9.65093,38.8295 -6.60328,62.47712 -17.38298,73.25682c-0.67727,0.7337 -1.41096,1.41096 -2.20109,2.08821c-10.55395,9.5945 -29.00925,21.05146 -56.55109,21.05146c-13.71448,0 -26.52597,-3.04766 -37.70074,-8.63504c0.2822,15.40764 0.4515,36.6284 0.4515,66.08915c10.15888,3.5556 19.47119,9.31231 27.37254,16.87503c15.68982,15.069 24.26843,35.21746 24.26843,56.72041c0,31.94403 -18.39885,59.71164 -48.02892,72.41023c-0.7337,0.33863 -1.52384,0.67727 -2.25753,0.95945c-9.93313,3.78135 -21.1079,5.64382 -34.20157,5.64382c-4.74081,0 -9.82026,-0.22575 -15.3512,-0.7337c-3.3863,-0.16932 -8.35286,-0.11288 -14.22243,0.05645c-10.66683,1.1852 -25.6794,2.37041 -45.77139,3.49917c-0.39507,0 -0.79014,0.05645 -1.24164,0.05645c-2.6526,0.11288 -5.19232,0.16932 -7.6756,0.16932c-35.95115,0 -62.19492,-11.40052 -78.05407,-33.80649c-0.33863,-0.4515 -0.62082,-0.90302 -0.90302,-1.35452c-16.14134,-24.09911 -16.59284,-54.57576 -1.24164,-79.46501c0.11288,-0.2822 0.2822,-0.50795 0.4515,-0.79014c9.76381,-15.3512 24.04268,-26.30022 42.55441,-32.73417c0.22575,-10.89258 0.16932,-24.55063 -0.16932,-40.7484c-9.19943,3.8378 -19.80982,6.09533 -31.71828,6.09533c-31.43609,0 -57.39768,-18.68105 -66.42779,-47.06948c-1.86246,-5.75671 -3.61205,-14.166 -7.6756,-33.12924c-0.16932,-0.67727 -0.2822,-1.35452 -0.39507,-2.03178l-8.35286,-46.67441c-0.2822,-1.01589 -0.67727,-2.20109 -1.12877,-3.5556c-4.34574,-12.35997 -6.37753,-22.85747 -6.37753,-33.01635c0,-12.58572 3.66848,-31.60541 21.05146,-50.56865c8.74792,-9.5945 24.66351,-22.0109 50.28646,-26.01802c3.16053,-0.50795 6.37753,-0.79014 9.5945,-0.79014h62.42067c1.41096,0 2.82191,0.05645 4.23287,0.16932c23.81693,0.84657 45.15057,0.79014 63.43657,-0.05645c25.56652,-1.12877 51.0766,-3.32985 76.07873,-6.54683c2.82191,-0.90302 5.86958,-1.80602 9.14299,-2.59616c3.1041,-0.79014 6.26464,-1.29809 9.42518,-1.63671c24.04268,-2.20109 46.44866,4.74081 63.88807,19.6405c21.61583,18.56817 31.15389,46.67441 25.45365,75.23216z" fill="#ff6666"/><path d="M455.94833,45.43297c-2.31396,9.2728 -4.30059,21.8416 -5.95423,37.72895c-0.67162,7.94651 -0.34428,14.39739 0.99332,19.36395c2.30268,8.27948 2.15029,13.74271 -0.49666,16.38402c-3.64591,3.30728 -8.60684,4.96091 -14.89404,4.96091c-7.28618,0 -12.09471,-2.16158 -14.39739,-6.49604c-0.34428,-13.33071 -0.17496,-25.83742 0.49666,-37.50885c0.64904,-14.3353 0.99332,-21.83595 0.99332,-22.50193c-0.34428,0 -0.83528,-0.33299 -1.48996,-1.00461c-30.78704,1.33758 -59.7455,3.32422 -86.881,5.97681c-0.66596,3.32422 -0.66596,8.62376 0,15.91559c1.31501,10.28304 1.98662,16.25421 1.98662,17.90221c-1.32066,10.28304 -1.98662,25.53265 -1.98662,45.76576c1.31501,8.62376 1.98662,45.60209 1.98662,110.92932v36.318c0,5.63818 0.81835,9.61708 2.46071,11.93669h30.48229c5.57045,-0.66033 10.07423,0.66596 13.52259,3.97325c3.43709,3.31292 5.15846,7.28053 5.15846,11.90847c0,7.27489 -3.47095,12.41076 -10.42414,15.39635c-4.30624,1.648 -11.9141,1.98662 -22.8349,0.99332c-5.2939,-0.33863 -13.07674,-0.33863 -23.33721,0c-9.26715,1.15134 -24.15556,2.30833 -44.6765,3.47095c-17.87399,0.66033 -28.79479,-1.82295 -32.76803,-7.4442c-2.6526,-3.96761 -2.6526,-8.11018 0,-12.41076c4.62794,-7.27489 16.71136,-10.9208 36.24463,-10.9208c6.94755,0 11.24249,-0.57568 12.90177,-1.73265c1.65363,-1.15699 2.48328,-3.39193 2.48328,-6.69922c0,-2.96866 0,-5.77363 0,-8.42058c0,-4.94963 0,-12.21887 0,-21.79644c0.99332,-16.83552 0.99332,-41.94489 0,-75.30552c-1.32629,-47.88783 -0.66596,-89.99074 1.98662,-126.32568c-0.33299,-0.32734 -0.82965,-0.824 -1.50125,-1.48996c-11.98183,0.66596 -31.2837,0.33299 -57.90562,-0.99895c-2.99686,0 -13.15574,0.67162 -30.45407,1.99227c4.30059,30.12108 6.94755,52.79231 7.94086,68.01371c0,1.98662 -0.33299,6.45653 -0.99332,13.40408c-0.33299,4.96091 -4.46991,7.4442 -12.41076,7.4442c-4.30624,0 -6.78387,-1.47868 -7.4442,-4.4304c-0.33299,-0.64904 -2.31961,-9.52112 -5.95987,-26.58805c-1.98662,-11.15783 -4.8029,-26.91539 -8.43752,-47.26701c0,-1.29809 -1.16262,-5.40114 -3.47095,-12.30354c-1.97534,-5.58174 -2.96301,-9.84846 -2.96301,-12.80018c0,-2.29139 1.56335,-5.17538 4.71824,-8.61247c3.14361,-3.44273 7.86184,-5.6664 14.14906,-6.65407c0.99332,0 2.55665,0 4.71824,0c2.14466,0 3.88294,0 5.20925,0c39.38823,0 56.59625,0 51.62969,0c26.80816,0.99895 50.63637,0.99895 71.48465,0c29.78245,-1.31501 59.23192,-3.96761 88.36533,-7.94086c1.98662,-0.99332 4.96091,-1.98662 8.92853,-2.97429c7.28618,-0.66033 13.24041,0.99332 17.87962,4.96657c4.62794,3.96196 6.28157,9.26152 4.96091,15.88171z" fill="#ffffff"/></g></g></svg>